<?xml version="1.0" encoding="UTF-8"?>
<svg id="Layer_1" data-name="Layer 1" xmlns="http://www.w3.org/2000/svg" xmlns:xlink="http://www.w3.org/1999/xlink" viewBox="0 0 471.9 52.17">
  <defs>
    <style>
      .cls-1 {
        fill: url(#linear-gradient);
      }

      .cls-1, .cls-2, .cls-3 {
        stroke-width: 0px;
      }

      .cls-4 {
        isolation: isolate;
      }

      .cls-3 {
        fill: #fff;
      }
    </style>
    <linearGradient id="linear-gradient" x1="556.59" y1="281.84" x2="1188.65" y2="281.84" gradientTransform="translate(-85.15 -256.24) scale(.17 1)" gradientUnits="userSpaceOnUse">
      <stop offset="0" stop-color="#bf181a"/>
      <stop offset=".35" stop-color="#873671"/>
      <stop offset="1" stop-color="#457ec1"/>
    </linearGradient>
  </defs>
  <g>
    <g>
      <path class="cls-2" d="M393.11,31.48c-1.18,5.84-5.69,6.14-6.58,6.14-2.55,0-4.07-1.47-4.07-3.93,0-.56.08-1.33.23-2.09l2.79-13.9v-.05s-3.28,0-3.28,0l-2.84,14.25-.04.2c-.12.64-.24,1.25-.24,2.05,0,3.83,2.51,6.4,6.26,6.4,2.74,0,4.94-.9,6.55-2.68l-.43,2.35v.06s3.24,0,3.24,0l4.49-22.57v-.05s-3.33,0-3.33,0l-2.75,13.84Z"/>
      <path class="cls-2" d="M415.57,17.36c-2.55,0-4.8,1.04-6.22,2.87l.51-2.54v-.05s-3.24,0-3.24,0l-4.49,22.57v.06s3.29,0,3.29,0l2.75-13.84c.7-3.55,3.43-6.13,6.49-6.13,1.31,0,2.35.52,3.16,1.58l.03.04,2.68-2.4-.03-.03c-1.24-1.43-2.85-2.12-4.93-2.12Z"/>
      <polygon class="cls-2" points="361.08 20.51 361.08 20.56 372.32 20.56 357.35 37.49 357.34 37.5 356.78 40.26 372.73 40.26 373.3 37.34 361.37 37.34 376.39 20.41 376.4 20.4 376.96 17.64 361.64 17.64 361.08 20.51"/>
      <polygon class="cls-2" points="420.95 40.21 420.93 40.26 424.23 40.26 428.72 17.64 425.48 17.64 420.95 40.21"/>
      <path class="cls-2" d="M465.63,17.36c-2.71,0-4.83.83-6.45,2.54l2.56-12.6h-3.3l-6.62,32.96h3.3l2.75-13.84c1.18-5.84,5.73-6.13,6.63-6.13,2.52,0,4.02,1.47,4.02,3.93,0,.56-.09,1.32-.23,2.09l-2.8,13.95h3.29l2.89-14.26c.14-.76.23-1.4.23-2.25,0-3.83-2.53-6.4-6.27-6.4Z"/>
      <path class="cls-2" d="M443.78,17.36c-5.98,0-10.17,4.21-11.52,11.55-.24,1.23-.33,2.6-.33,3.48,0,5.02,3.05,8.14,7.95,8.14,2.85,0,5.46-1.09,7.53-3.16l.03-.03-1.9-2.32-.03-.04-.03.04c-1.75,1.84-3.32,2.59-5.41,2.59-2.34,0-4.84-1.39-4.84-5.3,0-1.22.15-2.24.36-3.38.35-1.92,1.15-4.6,2.91-6.46,1.4-1.45,3.07-2.18,4.95-2.18s3.19.7,4.39,2.49l.03.05,2.42-2.04.03-.03-.03-.04c-1.65-2.32-3.67-3.36-6.53-3.36Z"/>
      <polygon class="cls-2" points="426.71 11.43 430.01 11.43 430.83 7.31 427.54 7.31 426.71 11.43"/>
      <polygon class="cls-2" points="394.66 11.43 397.96 11.43 398.78 7.31 395.5 7.31 394.66 11.43"/>
      <polygon class="cls-2" points="385.87 11.43 389.18 11.43 389.99 7.31 386.71 7.31 385.87 11.43"/>
    </g>
    <polygon class="cls-2" points="341.84 20.08 334.43 20.08 337.03 7.31 274 7.31 267.38 40.27 292.51 40.27 294.16 32.03 279.32 32.03 280.22 27.5 295.05 27.5 296.54 20.08 281.71 20.08 282.6 15.55 306.12 15.55 301.16 40.27 311.46 40.27 316.42 15.55 325.07 15.55 320.11 40.27 330.41 40.27 332.95 27.5 340.37 27.5 337.82 40.27 348.12 40.27 354.75 7.31 344.45 7.31 341.84 20.08"/>
  </g>
  <g>
    <g class="cls-4">
      <path class="cls-2" d="M135.13,5.53v2.48c0,.57-.11,1.1-.34,1.61s-.53.95-.91,1.31c-.38.38-.83.68-1.36.89s-1.08.32-1.65.32-1.16-.11-1.67-.32c-.53-.21-.97-.51-1.36-.89-.38-.38-.68-.8-.91-1.31-.21-.51-.34-1.04-.34-1.61v-3.85c0-.57.11-1.1.34-1.61.21-.51.53-.95.91-1.31.38-.38.83-.68,1.36-.89s1.08-.32,1.67-.32c.51,0,1,.08,1.46.23.47.15.87.38,1.23.66s.66.61.91,1c.25.38.44.8.55,1.23h-1.63c-.19-.53-.49-.93-.91-1.21-.42-.28-.95-.42-1.61-.42-.36,0-.7.06-1.02.19-.32.13-.57.32-.8.55s-.4.51-.53.83-.19.68-.19,1.06v3.83c0,.38.06.74.19,1.06.13.32.3.59.53.83s.51.4.8.55c.32.13.66.19,1.02.19.4,0,.78-.06,1.12-.19s.64-.32.87-.55.42-.51.57-.83c.13-.32.21-.68.21-1.06v-1.06h-2.16v-1.4h3.64v.02Z"/>
    </g>
    <g class="cls-4">
      <path class="cls-2" d="M144.26,10.52v1.44h-6.56V.17h1.69v10.35h4.87Z"/>
    </g>
    <g class="cls-4">
      <path class="cls-2" d="M150.16.02c.61,0,1.19.11,1.72.34s1,.53,1.38.93c.4.4.7.85.93,1.38.23.53.34,1.1.34,1.72v3.39c0,.59-.11,1.16-.34,1.69s-.53,1-.93,1.38c-.4.4-.85.7-1.38.93s-1.1.34-1.72.34-1.16-.11-1.69-.34-.97-.55-1.38-.93-.7-.85-.93-1.38c-.23-.53-.34-1.1-.34-1.69v-3.39c0-.59.11-1.16.34-1.69s.53-1,.91-1.38c.38-.4.85-.7,1.38-.93.55-.25,1.12-.36,1.72-.36ZM152.81,4.38c0-.42-.06-.8-.21-1.14-.13-.34-.32-.64-.55-.89s-.51-.44-.83-.59c-.32-.15-.68-.21-1.04-.21s-.72.06-1.04.21c-.32.15-.59.34-.83.59-.23.25-.42.55-.55.89s-.21.72-.21,1.14v3.39c0,.42.06.8.21,1.14.13.34.32.64.55.89s.51.44.83.59c.32.15.66.21,1.04.21s.72-.06,1.04-.21.59-.34.83-.59c.23-.25.42-.55.55-.89s.21-.72.21-1.14v-3.39Z"/>
      <path class="cls-2" d="M157.26,11.96V.17h4.49c.47,0,.89.06,1.29.17.4.11.76.28,1.06.53.3.23.55.55.72.93.17.38.28.87.28,1.44,0,.38-.04.72-.15,1.02s-.21.55-.36.76-.32.4-.53.55c-.19.15-.4.25-.61.32.23.04.47.15.7.3.23.15.44.34.64.57s.34.51.47.85c.13.32.19.7.19,1.12,0,.57-.08,1.06-.28,1.46-.17.42-.42.76-.72,1.02-.3.28-.66.47-1.06.59-.4.13-.85.19-1.31.19h-4.81v-.02ZM158.95,1.57v3.66h2.54c.23,0,.44-.04.68-.11.21-.06.4-.19.57-.34s.3-.36.4-.61c.11-.25.15-.55.15-.93,0-.28-.04-.53-.15-.74s-.23-.38-.4-.53c-.17-.13-.36-.23-.57-.3-.21-.06-.44-.11-.68-.11,0,0-2.54,0-2.54,0ZM161.85,10.59c.23,0,.44-.04.66-.13s.4-.21.55-.38c.17-.17.3-.36.4-.59s.15-.49.15-.76c0-.36-.04-.68-.15-.95s-.23-.51-.4-.7c-.17-.19-.34-.34-.55-.42s-.42-.15-.66-.15h-2.9v4.09h2.9Z"/>
      <path class="cls-2" d="M166.62,11.96c.08-.34.23-.83.4-1.44.17-.61.38-1.29.59-2.03s.44-1.52.7-2.35c.23-.83.47-1.61.7-2.37.21-.76.42-1.46.61-2.1s.34-1.14.44-1.52h1.8s.06.21.17.55.23.8.38,1.33.34,1.16.55,1.86.4,1.4.61,2.14.4,1.44.61,2.14c.21.7.38,1.31.55,1.86.15.55.28,1,.38,1.33.11.34.15.53.17.55h-1.8l-.72-2.67h-3.64l-.72,2.71s-1.8,0-1.8,0ZM169.5,7.79h2.94l-1.48-5.61-1.46,5.61Z"/>
      <path class="cls-2" d="M183.62,10.52v1.44h-6.56V.17h1.69v10.35h4.87Z"/>
    </g>
    <g class="cls-4">
      <path class="cls-2" d="M129.67,19.67v5.21h3.75v-5.21h1.69v11.79h-1.69v-5.21h-3.75v5.21h-1.69v-11.79h1.69Z"/>
      <path class="cls-2" d="M145.34,19.67v1.44h-4.93v3.75h4.47v1.38h-4.47v3.75h4.93v1.44h-6.65v-11.79h6.65v.04Z"/>
      <path class="cls-2" d="M147.24,31.46c.08-.34.23-.83.4-1.44.17-.61.38-1.29.59-2.03s.44-1.52.7-2.35c.23-.83.47-1.61.7-2.37.21-.76.42-1.46.61-2.1s.34-1.14.44-1.52h1.8s.06.21.17.55.23.8.38,1.33.34,1.16.55,1.86.4,1.4.61,2.14.4,1.44.61,2.14.38,1.31.55,1.86c.15.55.28,1,.38,1.33s.15.53.17.55h-1.8l-.72-2.71h-3.64l-.72,2.71h-1.8v.04ZM150.1,27.29h2.94l-1.46-5.61-1.48,5.61Z"/>
    </g>
    <g class="cls-4">
      <path class="cls-2" d="M164.96,30.02v1.44h-6.56v-11.79h1.69v10.35h4.87Z"/>
    </g>
    <g class="cls-4">
      <path class="cls-2" d="M165.22,21.13v-1.44h8.66v1.44h-3.51v10.35h-1.69v-10.35h-3.45Z"/>
      <path class="cls-2" d="M178.26,19.67v5.21h3.75v-5.21h1.69v11.79h-1.69v-5.21h-3.75v5.21h-1.69v-11.79h1.69Z"/>
    </g>
    <g class="cls-4">
      <path class="cls-2" d="M134.6,39.59v1.44h-4.93v3.75h4.47v1.38h-4.47v3.75h4.93v1.44h-6.63v-11.79h6.63v.04Z"/>
      <path class="cls-2" d="M137.67,39.59h1.72l3.96,8.19v-8.19h1.69v11.79h-1.69l-3.98-8.19v8.19h-1.69v-11.79Z"/>
      <path class="cls-2" d="M156.71,44.93v2.48c0,.57-.11,1.1-.34,1.61s-.53.95-.91,1.31c-.38.38-.83.68-1.36.89s-1.08.32-1.65.32-1.16-.11-1.67-.32c-.53-.21-.97-.51-1.36-.89-.38-.38-.68-.8-.91-1.31-.21-.51-.34-1.04-.34-1.61v-3.83c0-.57.11-1.1.34-1.61.21-.51.53-.95.91-1.31.38-.38.83-.68,1.36-.89s1.08-.32,1.67-.32c.51,0,1,.08,1.46.23.47.15.87.38,1.23.66s.66.61.91,1,.44.8.55,1.23h-1.61c-.19-.53-.49-.93-.91-1.21s-.95-.42-1.61-.42c-.36,0-.7.06-1.02.19-.32.13-.57.32-.8.55s-.4.51-.53.83c-.13.32-.19.68-.19,1.06v3.83c0,.38.06.74.19,1.06.13.32.3.59.53.83s.51.4.8.55c.32.13.66.19,1.02.19.4,0,.78-.06,1.12-.19s.64-.32.87-.55.42-.51.57-.83c.13-.32.21-.68.21-1.06v-1.06h-2.16v-1.4h3.62Z"/>
      <path class="cls-2" d="M161.6,39.59v11.79h-1.69v-11.79h1.69Z"/>
      <path class="cls-2" d="M165.18,39.59h1.72l3.96,8.19v-8.19h1.69v11.79h-1.69l-3.98-8.19v8.19h-1.69v-11.79Z"/>
      <path class="cls-2" d="M182.75,39.59v1.44h-4.93v3.75h4.47v1.38h-4.47v3.75h4.93v1.44h-6.63v-11.79h6.63v.04Z"/>
      <path class="cls-2" d="M192.45,39.59v1.44h-4.93v3.75h4.47v1.38h-4.47v3.75h4.93v1.44h-6.63v-11.79h6.63v.04Z"/>
      <path class="cls-2" d="M199.67,39.59c.47,0,.91.06,1.33.21.44.15.83.36,1.14.64.34.28.59.64.8,1.06.19.42.3.91.3,1.44,0,.42-.06.8-.19,1.14s-.3.66-.51.93-.47.51-.76.68c-.3.19-.59.32-.93.42.08.04.23.17.4.38.17.19.36.53.57,1,.15.32.32.7.53,1.14s.4.87.59,1.25c.19.4.34.74.49,1.04.13.3.21.44.21.44h-1.86c-.06-.15-.19-.38-.34-.72s-.32-.68-.51-1.06-.36-.76-.55-1.14c-.17-.38-.32-.7-.44-.95-.11-.21-.21-.4-.34-.57-.11-.15-.21-.28-.34-.4s-.25-.19-.38-.19h-1.67v5.04h-1.69v-11.79h4.15v.02ZM197.23,44.95h2.43c.25,0,.51-.04.74-.13s.42-.21.59-.36c.17-.17.3-.38.4-.64s.15-.55.15-.89c0-.68-.19-1.16-.55-1.5-.36-.32-.8-.49-1.33-.49h-2.43v4h0Z"/>
      <path class="cls-2" d="M208.29,39.59v11.79h-1.69v-11.79h1.69Z"/>
      <path class="cls-2" d="M211.84,39.59h1.72l3.96,8.19v-8.19h1.69v11.79h-1.69l-3.98-8.19v8.19h-1.69v-11.79h0Z"/>
      <path class="cls-2" d="M230.88,44.93v2.48c0,.57-.11,1.1-.34,1.61s-.53.95-.91,1.31c-.38.38-.83.68-1.36.89s-1.08.32-1.65.32-1.16-.11-1.67-.32c-.53-.21-.97-.51-1.36-.89-.38-.38-.68-.8-.91-1.31-.21-.51-.34-1.04-.34-1.61v-3.83c0-.57.11-1.1.34-1.61.21-.51.53-.95.91-1.31.38-.38.83-.68,1.36-.89s1.08-.32,1.67-.32c.51,0,1,.08,1.46.23.47.15.87.38,1.23.66.36.28.66.61.91,1,.25.38.44.8.55,1.23h-1.61c-.19-.53-.49-.93-.91-1.21s-.95-.42-1.61-.42c-.36,0-.7.06-1.02.19-.32.13-.57.32-.8.55s-.4.51-.53.83c-.13.32-.19.68-.19,1.06v3.83c0,.38.06.74.19,1.06s.3.59.53.83.51.4.8.55c.32.13.66.19,1.02.19.4,0,.78-.06,1.12-.19.34-.13.64-.32.87-.55s.42-.51.57-.83c.13-.32.21-.68.21-1.06v-1.06h-2.16v-1.4h3.62Z"/>
    </g>
    <g class="cls-4">
      <path class="cls-2" d="M5.55,22.59v7.35c0,5.67,1.16,9.91,3.49,12.7,2.33,2.82,5.55,4.21,9.63,4.21,3.66,0,6.54-1.02,8.58-3.05,2.05-2.03,3.07-4.53,3.07-7.47h5.48c0,1.78-.34,3.56-1.04,5.36-.7,1.8-1.72,3.51-3.05,5.12-1.33,1.61-3.15,2.92-5.46,3.9-2.31.97-4.93,1.46-7.88,1.46-5.67,0-10.16-1.91-13.45-5.72C1.65,42.64,0,37.16,0,30.02v-7.58C0,15.37,1.67,9.85,5,5.91,8.32,1.97,12.81,0,18.44,0c2.82,0,5.36.49,7.62,1.46,2.27.97,4.09,2.29,5.46,3.94,1.38,1.65,2.43,3.43,3.18,5.38.74,1.95,1.1,3.94,1.1,5.99h-5.48c0-2.99-1.06-5.63-3.2-7.96-2.14-2.31-5.04-3.47-8.68-3.47-3.92,0-7.03,1.48-9.38,4.45-2.35,2.96-3.51,7.22-3.51,12.81Z"/>
    </g>
    <g class="cls-4">
      <path class="cls-2" d="M90.84,51.09h-5.12V.97h5.12v50.12Z"/>
    </g>
    <rect class="cls-2" x="85.52" y=".38" width="5.29" height="50.82"/>
    <rect class="cls-2" x="87.55" y=".38" width="29.28" height="4.87"/>
    <rect class="cls-2" x="90.79" y="46.33" width="26.13" height="4.87"/>
    <rect class="cls-2" x="71.88" y=".38" width="5.29" height="22.23"/>
    <rect class="cls-2" x="42.54" y="28.31" width="5.29" height="22.87"/>
    <rect class="cls-2" x="30.34" y="28.31" width="5.46" height="8.05"/>
    <g id="g215">
      <path id="rect2970" class="cls-1" d="M42.18.17v22.42H11.75v5.84h59.92v22.61h5.55v-22.61h16.9c.15,0,.97.02,2.14-.38,1.25-.42,2.69-1.36,3.83-1.65,1.27-.34,1.93.23,3.09,1.44.53.55,1.12,1.12,1.82,1.5.57.3,1.16.44,1.84.36,0,0,.19,0,.47-.06h.02c.23-.06.55-.17.91-.4.85-.53,1.95-1.65,3.03-2.18.55-.28,1.08-.36,1.65-.25.59.13,1.12.42,1.82.8.68.36,1.42.7,2.27.78.85.06,1.76-.15,2.77-.74.04-.02.08-.04.13-.04,0,0,.13-.04.36-.23.25-.19.57-.49.85-.83.28-.34.4-.55.47-.7s.06-.17.21-.34c0,0-.15,0-.38.02-.32.02-.49.06-.89.13-.36.04-.68.08-1.04.04-.32-.02-.64-.11-1-.19-.19-.11-.42-.25-.72-.53-.8-.78-2.05-2.52-3.45-3.6-.72-.55-1.42-.85-2.14-.83-.74.02-1.4.38-2.08.93-1.44,1.19-2.37,2.71-3.41,2.63h0c-.08,0-.17,0-.32-.02-.36-.04-.8-.13-1.29-.38s-.91-.61-1.38-1.08c-.44-.44-.89-.95-1.36-1.31-.49-.38-1.02-.61-1.67-.64-.66-.02-1.4.17-2.22.49-1.72.66-3.24,1.55-4.4,1.44h-22.19v-11.56h-2.48v.95h-.25v.74h-.83v2.88h-1.06v4.91h-.42v-5.63h-.95v-5.87c0-1.08-.78-2.12-1.93-2.37v-.97h-.23v-.95h-.15v-.66h-.34v.66h-.15v.95h-.23v.95c-1.12.21-1.99,1.06-2.08,2.12h0v6.12h-1.1v1.72h-1.02v-.21s-.02-.06-.02-.08c-.02-.04-.02-.08-.04-.11-.02-.04-.02-.06-.04-.11s-.04-.06-.06-.11c-.02-.04-.04-.06-.06-.11-.02-.02-.04-.06-.08-.08-.02-.02-.06-.06-.08-.08-.02-.02-.06-.04-.08-.08-.02-.02-.06-.04-.11-.06s-.06-.04-.11-.06-.06-.04-.11-.04c-.04-.02-.06-.02-.11-.04h-.66c-.17-.47-.64-1.86-.95-2.79l-.47,1.27h-2.58v1.52h-4.34v.93c-.15.49-.53.85-1.02.95V.15h-5.55v.02Z"/>
    </g>
    <g class="cls-4">
      <path class="cls-3" d="M12.39,28.08v-5.15h1.1v5.15h-1.1Z"/>
      <path class="cls-3" d="M16.6,28.08v-5.15h1.1v5.15h-1.1Z"/>
      <path class="cls-3" d="M22.38,22.89c.53,0,.93.17,1.23.53.36.42.53,1.12.53,2.1s-.17,1.67-.53,2.1c-.3.36-.7.53-1.23.53s-.95-.19-1.27-.57-.49-1.08-.49-2.05.17-1.67.53-2.1c.3-.34.7-.53,1.23-.53ZM22.38,23.71c-.13,0-.23.04-.34.11-.11.08-.17.21-.23.4-.06.25-.11.68-.11,1.29s.04,1.02.11,1.25c.06.23.15.38.23.44.11.08.21.11.34.11s.23-.04.34-.11c.11-.08.17-.21.23-.4.06-.25.11-.68.11-1.29s-.04-1.02-.11-1.25c-.06-.23-.15-.38-.23-.44s-.21-.11-.34-.11Z"/>
      <path class="cls-3" d="M27.14,28.08v-5.15h1.1v5.15h-1.1Z"/>
      <path class="cls-3" d="M32.93,22.89c.53,0,.93.17,1.23.53.36.42.53,1.12.53,2.1s-.17,1.67-.53,2.1c-.3.36-.7.53-1.23.53s-.95-.19-1.27-.57-.49-1.08-.49-2.05.17-1.67.53-2.1c.3-.34.7-.53,1.23-.53ZM32.93,23.71c-.13,0-.23.04-.34.11-.11.08-.17.21-.23.4-.06.25-.11.68-.11,1.29s.04,1.02.11,1.25c.06.23.15.38.23.44.11.08.21.11.34.11s.23-.04.34-.11c.11-.08.17-.21.23-.4.06-.25.11-.68.11-1.29s-.04-1.02-.11-1.25c-.06-.23-.15-.38-.23-.44s-.21-.11-.34-.11Z"/>
      <path class="cls-3" d="M39.26,22.89c.53,0,.93.17,1.23.53.36.42.53,1.12.53,2.1s-.17,1.67-.53,2.1c-.3.36-.7.53-1.23.53s-.95-.19-1.27-.57-.49-1.08-.49-2.05.17-1.67.53-2.1c.3-.34.7-.53,1.23-.53ZM39.26,23.71c-.13,0-.23.04-.34.11-.11.08-.17.21-.23.4-.06.25-.11.68-.11,1.29s.04,1.02.11,1.25c.06.23.15.38.23.44.11.08.21.11.34.11s.23-.04.34-.11c.11-.08.17-.21.23-.4.06-.25.11-.68.11-1.29s-.04-1.02-.11-1.25c-.06-.23-.15-.38-.23-.44-.11-.06-.21-.11-.34-.11Z"/>
      <path class="cls-3" d="M44.02,28.08v-5.15h1.1v5.15h-1.1Z"/>
      <path class="cls-3" d="M48.23,28.08v-5.15h1.1v5.15h-1.1Z"/>
      <path class="cls-3" d="M54.01,22.89c.53,0,.93.17,1.23.53.36.42.53,1.12.53,2.1s-.17,1.67-.53,2.1c-.3.36-.7.53-1.23.53s-.95-.19-1.27-.57-.49-1.08-.49-2.05.17-1.67.53-2.1c.3-.34.7-.53,1.23-.53ZM54.01,23.71c-.13,0-.23.04-.34.11-.11.08-.17.21-.23.4-.06.25-.11.68-.11,1.29s.04,1.02.11,1.25c.06.23.15.38.23.44.11.08.21.11.34.11s.23-.04.34-.11c.11-.08.17-.21.23-.4.06-.25.11-.68.11-1.29s-.04-1.02-.11-1.25c-.06-.23-.15-.38-.23-.44-.08-.06-.21-.11-.34-.11Z"/>
    </g>
  </g>
</svg>