<?xml version="1.0" encoding="UTF-8" standalone="no"?>
<svg
   id="Layer_1"
   data-name="Layer 1"
   viewBox="0 0 498.9 78.17"
   version="1.1"
   sodipodi:docname="ETH_GHE_logo_negative.svg"
   width="498.89999"
   height="78.169998"
   inkscape:version="1.3 (0e150ed, 2023-07-21)"
   xmlns:inkscape="http://www.inkscape.org/namespaces/inkscape"
   xmlns:sodipodi="http://sodipodi.sourceforge.net/DTD/sodipodi-0.dtd"
   xmlns="http://www.w3.org/2000/svg"
   xmlns:svg="http://www.w3.org/2000/svg">
  <sodipodi:namedview
     id="namedview47"
     pagecolor="#000000"
     bordercolor="#000000"
     borderopacity="0.25"
     inkscape:showpageshadow="2"
     inkscape:pageopacity="0.0"
     inkscape:pagecheckerboard="0"
     inkscape:deskcolor="#d1d1d1"
     inkscape:zoom="1.4104352"
     inkscape:cx="414.05661"
     inkscape:cy="117.33967"
     inkscape:window-width="2560"
     inkscape:window-height="1312"
     inkscape:window-x="1920"
     inkscape:window-y="25"
     inkscape:window-maximized="1"
     inkscape:current-layer="Layer_1"
     showguides="true" />
  <defs
     id="defs3">
    <style
       id="style1">&#10;      .cls-1 {&#10;        fill: url(#linear-gradient);&#10;      }&#10;&#10;      .cls-1, .cls-2, .cls-3 {&#10;        stroke-width: 0px;&#10;      }&#10;&#10;      .cls-4 {&#10;        isolation: isolate;&#10;      }&#10;&#10;      .cls-3 {&#10;        fill: #fff;&#10;      }&#10;    </style>
    <linearGradient
       id="linear-gradient"
       x1="556.59003"
       y1="281.84"
       x2="1188.65"
       y2="281.84"
       gradientTransform="matrix(0.17,0,0,1,-85.15,-256.24)"
       gradientUnits="userSpaceOnUse">
      <stop
         offset="0"
         stop-color="#bf181a"
         id="stop1" />
      <stop
         offset=".35"
         stop-color="#873671"
         id="stop2" />
      <stop
         offset="1"
         stop-color="#457ec1"
         id="stop3" />
    </linearGradient>
  </defs>
  <g
     id="g9"
     transform="translate(15.5187,13.984148)">
    <g
       id="g8">
      <path
         class="cls-2"
         d="m 393.11,31.48 c -1.18,5.84 -5.69,6.14 -6.58,6.14 -2.55,0 -4.07,-1.47 -4.07,-3.93 0,-0.56 0.08,-1.33 0.23,-2.09 l 2.79,-13.9 v -0.05 c 0,0 -3.28,0 -3.28,0 l -2.84,14.25 -0.04,0.2 c -0.12,0.64 -0.24,1.25 -0.24,2.05 0,3.83 2.51,6.4 6.26,6.4 2.74,0 4.94,-0.9 6.55,-2.68 l -0.43,2.35 v 0.06 c 0,0 3.24,0 3.24,0 l 4.49,-22.57 v -0.05 c 0,0 -3.33,0 -3.33,0 l -2.75,13.84 z"
         id="path3"
         style="stroke-width:0px" />
      <path
         class="cls-2"
         d="m 415.57,17.36 c -2.55,0 -4.8,1.04 -6.22,2.87 l 0.51,-2.54 v -0.05 c 0,0 -3.24,0 -3.24,0 l -4.49,22.57 v 0.06 c 0,0 3.29,0 3.29,0 l 2.75,-13.84 c 0.7,-3.55 3.43,-6.13 6.49,-6.13 1.31,0 2.35,0.52 3.16,1.58 l 0.03,0.04 2.68,-2.4 -0.03,-0.03 c -1.24,-1.43 -2.85,-2.12 -4.93,-2.12 z"
         id="path4"
         style="stroke-width:0px" />
      <polygon
         class="cls-2"
         points="376.39,20.41 376.4,20.4 376.96,17.64 361.64,17.64 361.08,20.51 361.08,20.56 372.32,20.56 357.35,37.49 357.34,37.5 356.78,40.26 372.73,40.26 373.3,37.34 361.37,37.34 "
         id="polygon4"
         style="stroke-width:0px" />
      <polygon
         class="cls-2"
         points="424.23,40.26 428.72,17.64 425.48,17.64 420.95,40.21 420.93,40.26 "
         id="polygon5"
         style="stroke-width:0px" />
      <path
         class="cls-2"
         d="m 465.63,17.36 c -2.71,0 -4.83,0.83 -6.45,2.54 l 2.56,-12.6 h -3.3 l -6.62,32.96 h 3.3 l 2.75,-13.84 c 1.18,-5.84 5.73,-6.13 6.63,-6.13 2.52,0 4.02,1.47 4.02,3.93 0,0.56 -0.09,1.32 -0.23,2.09 l -2.8,13.95 h 3.29 L 471.67,26 c 0.14,-0.76 0.23,-1.4 0.23,-2.25 0,-3.83 -2.53,-6.4 -6.27,-6.4 z"
         id="path5"
         style="stroke-width:0px" />
      <path
         class="cls-2"
         d="m 443.78,17.36 c -5.98,0 -10.17,4.21 -11.52,11.55 -0.24,1.23 -0.33,2.6 -0.33,3.48 0,5.02 3.05,8.14 7.95,8.14 2.85,0 5.46,-1.09 7.53,-3.16 l 0.03,-0.03 -1.9,-2.32 -0.03,-0.04 -0.03,0.04 c -1.75,1.84 -3.32,2.59 -5.41,2.59 -2.34,0 -4.84,-1.39 -4.84,-5.3 0,-1.22 0.15,-2.24 0.36,-3.38 0.35,-1.92 1.15,-4.6 2.91,-6.46 1.4,-1.45 3.07,-2.18 4.95,-2.18 1.88,0 3.19,0.7 4.39,2.49 l 0.03,0.05 2.42,-2.04 0.03,-0.03 -0.03,-0.04 c -1.65,-2.32 -3.67,-3.36 -6.53,-3.36 z"
         id="path6"
         style="stroke-width:0px" />
      <polygon
         class="cls-2"
         points="430.01,11.43 430.83,7.31 427.54,7.31 426.71,11.43 "
         id="polygon6"
         style="stroke-width:0px" />
      <polygon
         class="cls-2"
         points="397.96,11.43 398.78,7.31 395.5,7.31 394.66,11.43 "
         id="polygon7"
         style="stroke-width:0px" />
      <polygon
         class="cls-2"
         points="389.18,11.43 389.99,7.31 386.71,7.31 385.87,11.43 "
         id="polygon8"
         style="stroke-width:0px" />
    </g>
    <polygon
       class="cls-2"
       points="295.05,27.5 296.54,20.08 281.71,20.08 282.6,15.55 306.12,15.55 301.16,40.27 311.46,40.27 316.42,15.55 325.07,15.55 320.11,40.27 330.41,40.27 332.95,27.5 340.37,27.5 337.82,40.27 348.12,40.27 354.75,7.31 344.45,7.31 341.84,20.08 334.43,20.08 337.03,7.31 274,7.31 267.38,40.27 292.51,40.27 294.16,32.03 279.32,32.03 280.22,27.5 "
       id="polygon9"
       style="stroke-width:0px" />
  </g>
  <g
     id="g47"
     transform="translate(15.5187,13.984148)">
    <g
       class="cls-4"
       id="g10"
       style="isolation:isolate">
      <path
         class="cls-2"
         d="m 135.13,5.53 v 2.48 c 0,0.57 -0.11,1.1 -0.34,1.61 -0.23,0.51 -0.53,0.95 -0.91,1.31 -0.38,0.38 -0.83,0.68 -1.36,0.89 -0.53,0.21 -1.08,0.32 -1.65,0.32 -0.57,0 -1.16,-0.11 -1.67,-0.32 -0.53,-0.21 -0.97,-0.51 -1.36,-0.89 -0.38,-0.38 -0.68,-0.8 -0.91,-1.31 -0.21,-0.51 -0.34,-1.04 -0.34,-1.61 V 4.16 c 0,-0.57 0.11,-1.1 0.34,-1.61 0.21,-0.51 0.53,-0.95 0.91,-1.31 0.38,-0.38 0.83,-0.68 1.36,-0.89 0.53,-0.21 1.08,-0.32 1.67,-0.32 0.51,0 1,0.08 1.46,0.23 0.47,0.15 0.87,0.38 1.23,0.66 0.36,0.28 0.66,0.61 0.91,1 0.25,0.38 0.44,0.8 0.55,1.23 h -1.63 c -0.19,-0.53 -0.49,-0.93 -0.91,-1.21 -0.42,-0.28 -0.95,-0.42 -1.61,-0.42 -0.36,0 -0.7,0.06 -1.02,0.19 -0.32,0.13 -0.57,0.32 -0.8,0.55 -0.23,0.23 -0.4,0.51 -0.53,0.83 -0.13,0.32 -0.19,0.68 -0.19,1.06 v 3.83 c 0,0.38 0.06,0.74 0.19,1.06 0.13,0.32 0.3,0.59 0.53,0.83 0.23,0.24 0.51,0.4 0.8,0.55 0.32,0.13 0.66,0.19 1.02,0.19 0.4,0 0.78,-0.06 1.12,-0.19 0.34,-0.13 0.64,-0.32 0.87,-0.55 0.23,-0.23 0.42,-0.51 0.57,-0.83 0.13,-0.32 0.21,-0.68 0.21,-1.06 V 6.92 h -2.16 v -1.4 h 3.64 v 0.02 z"
         id="path9"
         style="stroke-width:0px" />
    </g>
    <g
       class="cls-4"
       id="g11"
       style="isolation:isolate">
      <path
         class="cls-2"
         d="m 144.26,10.52 v 1.44 H 137.7 V 0.17 h 1.69 v 10.35 z"
         id="path10"
         style="stroke-width:0px" />
    </g>
    <g
       class="cls-4"
       id="g14"
       style="isolation:isolate">
      <path
         class="cls-2"
         d="m 150.16,0.02 c 0.61,0 1.19,0.11 1.72,0.34 0.53,0.23 1,0.53 1.38,0.93 0.4,0.4 0.7,0.85 0.93,1.38 0.23,0.53 0.34,1.1 0.34,1.72 v 3.39 c 0,0.59 -0.11,1.16 -0.34,1.69 -0.23,0.53 -0.53,1 -0.93,1.38 -0.4,0.4 -0.85,0.7 -1.38,0.93 -0.53,0.23 -1.1,0.34 -1.72,0.34 -0.62,0 -1.16,-0.11 -1.69,-0.34 -0.53,-0.23 -0.97,-0.55 -1.38,-0.93 -0.41,-0.38 -0.7,-0.85 -0.93,-1.38 -0.23,-0.53 -0.34,-1.1 -0.34,-1.69 V 4.39 c 0,-0.59 0.11,-1.16 0.34,-1.69 0.23,-0.53 0.53,-1 0.91,-1.38 0.38,-0.4 0.85,-0.7 1.38,-0.93 0.55,-0.25 1.12,-0.36 1.72,-0.36 z m 2.65,4.36 c 0,-0.42 -0.06,-0.8 -0.21,-1.14 -0.13,-0.34 -0.32,-0.64 -0.55,-0.89 -0.23,-0.25 -0.51,-0.44 -0.83,-0.59 -0.32,-0.15 -0.68,-0.21 -1.04,-0.21 -0.36,0 -0.72,0.06 -1.04,0.21 -0.32,0.15 -0.59,0.34 -0.83,0.59 -0.23,0.25 -0.42,0.55 -0.55,0.89 -0.13,0.34 -0.21,0.72 -0.21,1.14 v 3.39 c 0,0.42 0.06,0.8 0.21,1.14 0.13,0.34 0.32,0.64 0.55,0.89 0.23,0.25 0.51,0.44 0.83,0.59 0.32,0.15 0.66,0.21 1.04,0.21 0.38,0 0.72,-0.06 1.04,-0.21 0.32,-0.15 0.59,-0.34 0.83,-0.59 0.23,-0.25 0.42,-0.55 0.55,-0.89 0.13,-0.34 0.21,-0.72 0.21,-1.14 z"
         id="path11"
         style="stroke-width:0px" />
      <path
         class="cls-2"
         d="M 157.26,11.96 V 0.17 h 4.49 c 0.47,0 0.89,0.06 1.29,0.17 0.4,0.11 0.76,0.28 1.06,0.53 0.3,0.23 0.55,0.55 0.72,0.93 0.17,0.38 0.28,0.87 0.28,1.44 0,0.38 -0.04,0.72 -0.15,1.02 -0.11,0.3 -0.21,0.55 -0.36,0.76 -0.15,0.21 -0.32,0.4 -0.53,0.55 -0.19,0.15 -0.4,0.25 -0.61,0.32 0.23,0.04 0.47,0.15 0.7,0.3 0.23,0.15 0.44,0.34 0.64,0.57 0.2,0.23 0.34,0.51 0.47,0.85 0.13,0.32 0.19,0.7 0.19,1.12 0,0.57 -0.08,1.06 -0.28,1.46 -0.17,0.42 -0.42,0.76 -0.72,1.02 -0.3,0.28 -0.66,0.47 -1.06,0.59 -0.4,0.13 -0.85,0.19 -1.31,0.19 h -4.81 v -0.02 z m 1.69,-10.39 v 3.66 h 2.54 c 0.23,0 0.44,-0.04 0.68,-0.11 0.21,-0.06 0.4,-0.19 0.57,-0.34 0.17,-0.15 0.3,-0.36 0.4,-0.61 0.11,-0.25 0.15,-0.55 0.15,-0.93 0,-0.28 -0.04,-0.53 -0.15,-0.74 -0.11,-0.21 -0.23,-0.38 -0.4,-0.53 -0.17,-0.13 -0.36,-0.23 -0.57,-0.3 -0.21,-0.06 -0.44,-0.11 -0.68,-0.11 0,0 -2.54,0 -2.54,0 z m 2.9,9.02 c 0.23,0 0.44,-0.04 0.66,-0.13 0.22,-0.09 0.4,-0.21 0.55,-0.38 0.17,-0.17 0.3,-0.36 0.4,-0.59 0.1,-0.23 0.15,-0.49 0.15,-0.76 0,-0.36 -0.04,-0.68 -0.15,-0.95 -0.11,-0.27 -0.23,-0.51 -0.4,-0.7 -0.17,-0.19 -0.34,-0.34 -0.55,-0.42 -0.21,-0.08 -0.42,-0.15 -0.66,-0.15 h -2.9 v 4.09 h 2.9 z"
         id="path12"
         style="stroke-width:0px" />
      <path
         class="cls-2"
         d="m 166.62,11.96 c 0.08,-0.34 0.23,-0.83 0.4,-1.44 0.17,-0.61 0.38,-1.29 0.59,-2.03 0.21,-0.74 0.44,-1.52 0.7,-2.35 0.23,-0.83 0.47,-1.61 0.7,-2.37 0.21,-0.76 0.42,-1.46 0.61,-2.1 0.19,-0.64 0.34,-1.14 0.44,-1.52 h 1.8 c 0,0 0.06,0.21 0.17,0.55 0.11,0.34 0.23,0.8 0.38,1.33 0.15,0.53 0.34,1.16 0.55,1.86 0.21,0.7 0.4,1.4 0.61,2.14 0.21,0.74 0.4,1.44 0.61,2.14 0.21,0.7 0.38,1.31 0.55,1.86 0.15,0.55 0.28,1 0.38,1.33 0.11,0.34 0.15,0.53 0.17,0.55 h -1.8 l -0.72,-2.67 h -3.64 l -0.72,2.71 c 0,0 -1.8,0 -1.8,0 z m 2.88,-4.17 h 2.94 l -1.48,-5.61 z"
         id="path13"
         style="stroke-width:0px" />
      <path
         class="cls-2"
         d="m 183.62,10.52 v 1.44 h -6.56 V 0.17 h 1.69 v 10.35 z"
         id="path14"
         style="stroke-width:0px" />
    </g>
    <g
       class="cls-4"
       id="g17"
       style="isolation:isolate">
      <path
         class="cls-2"
         d="m 129.67,19.67 v 5.21 h 3.75 v -5.21 h 1.69 v 11.79 h -1.69 v -5.21 h -3.75 v 5.21 h -1.69 V 19.67 Z"
         id="path15"
         style="stroke-width:0px" />
      <path
         class="cls-2"
         d="m 145.34,19.67 v 1.44 h -4.93 v 3.75 h 4.47 v 1.38 h -4.47 v 3.75 h 4.93 v 1.44 h -6.65 V 19.64 h 6.65 v 0.04 z"
         id="path16"
         style="stroke-width:0px" />
      <path
         class="cls-2"
         d="m 147.24,31.46 c 0.08,-0.34 0.23,-0.83 0.4,-1.44 0.17,-0.61 0.38,-1.29 0.59,-2.03 0.21,-0.74 0.44,-1.52 0.7,-2.35 0.23,-0.83 0.47,-1.61 0.7,-2.37 0.21,-0.76 0.42,-1.46 0.61,-2.1 0.19,-0.64 0.34,-1.14 0.44,-1.52 h 1.8 c 0,0 0.06,0.21 0.17,0.55 0.11,0.34 0.23,0.8 0.38,1.33 0.15,0.53 0.34,1.16 0.55,1.86 0.21,0.7 0.4,1.4 0.61,2.14 0.21,0.74 0.4,1.44 0.61,2.14 0.21,0.7 0.38,1.31 0.55,1.86 0.15,0.55 0.28,1 0.38,1.33 0.1,0.33 0.15,0.53 0.17,0.55 h -1.8 l -0.72,-2.71 h -3.64 l -0.72,2.71 h -1.8 v 0.04 z m 2.86,-4.17 h 2.94 l -1.46,-5.61 z"
         id="path17"
         style="stroke-width:0px" />
    </g>
    <g
       class="cls-4"
       id="g18"
       style="isolation:isolate">
      <path
         class="cls-2"
         d="m 164.96,30.02 v 1.44 H 158.4 V 19.67 h 1.69 v 10.35 z"
         id="path18"
         style="stroke-width:0px" />
    </g>
    <g
       class="cls-4"
       id="g20"
       style="isolation:isolate">
      <path
         class="cls-2"
         d="m 165.22,21.13 v -1.44 h 8.66 v 1.44 h -3.51 v 10.35 h -1.69 V 21.13 h -3.45 z"
         id="path19"
         style="stroke-width:0px" />
      <path
         class="cls-2"
         d="m 178.26,19.67 v 5.21 h 3.75 v -5.21 h 1.69 v 11.79 h -1.69 v -5.21 h -3.75 v 5.21 h -1.69 V 19.67 Z"
         id="path20"
         style="stroke-width:0px" />
    </g>
    <g
       class="cls-4"
       id="g31"
       style="isolation:isolate">
      <path
         class="cls-2"
         d="m 134.6,39.59 v 1.44 h -4.93 v 3.75 h 4.47 v 1.38 h -4.47 v 3.75 h 4.93 v 1.44 h -6.63 V 39.56 h 6.63 v 0.04 z"
         id="path21"
         style="stroke-width:0px" />
      <path
         class="cls-2"
         d="m 137.67,39.59 h 1.72 l 3.96,8.19 v -8.19 h 1.69 v 11.79 h -1.69 l -3.98,-8.19 v 8.19 h -1.69 V 39.59 Z"
         id="path22"
         style="stroke-width:0px" />
      <path
         class="cls-2"
         d="m 156.71,44.93 v 2.48 c 0,0.57 -0.11,1.1 -0.34,1.61 -0.23,0.51 -0.53,0.95 -0.91,1.31 -0.38,0.38 -0.83,0.68 -1.36,0.89 -0.53,0.21 -1.08,0.32 -1.65,0.32 -0.57,0 -1.16,-0.11 -1.67,-0.32 -0.53,-0.21 -0.97,-0.51 -1.36,-0.89 -0.38,-0.38 -0.68,-0.8 -0.91,-1.31 -0.21,-0.51 -0.34,-1.04 -0.34,-1.61 v -3.83 c 0,-0.57 0.11,-1.1 0.34,-1.61 0.21,-0.51 0.53,-0.95 0.91,-1.31 0.38,-0.38 0.83,-0.68 1.36,-0.89 0.53,-0.21 1.08,-0.32 1.67,-0.32 0.51,0 1,0.08 1.46,0.23 0.47,0.15 0.87,0.38 1.23,0.66 0.36,0.28 0.66,0.61 0.91,1 0.25,0.39 0.44,0.8 0.55,1.23 h -1.61 c -0.19,-0.53 -0.49,-0.93 -0.91,-1.21 -0.42,-0.28 -0.95,-0.42 -1.61,-0.42 -0.36,0 -0.7,0.06 -1.02,0.19 -0.32,0.13 -0.57,0.32 -0.8,0.55 -0.23,0.23 -0.4,0.51 -0.53,0.83 -0.13,0.32 -0.19,0.68 -0.19,1.06 v 3.83 c 0,0.38 0.06,0.74 0.19,1.06 0.13,0.32 0.3,0.59 0.53,0.83 0.23,0.24 0.51,0.4 0.8,0.55 0.32,0.13 0.66,0.19 1.02,0.19 0.4,0 0.78,-0.06 1.12,-0.19 0.34,-0.13 0.64,-0.32 0.87,-0.55 0.23,-0.23 0.42,-0.51 0.57,-0.83 0.13,-0.32 0.21,-0.68 0.21,-1.06 v -1.06 h -2.16 v -1.4 h 3.62 z"
         id="path23"
         style="stroke-width:0px" />
      <path
         class="cls-2"
         d="m 161.6,39.59 v 11.79 h -1.69 V 39.59 Z"
         id="path24"
         style="stroke-width:0px" />
      <path
         class="cls-2"
         d="m 165.18,39.59 h 1.72 l 3.96,8.19 v -8.19 h 1.69 v 11.79 h -1.69 l -3.98,-8.19 v 8.19 h -1.69 V 39.59 Z"
         id="path25"
         style="stroke-width:0px" />
      <path
         class="cls-2"
         d="m 182.75,39.59 v 1.44 h -4.93 v 3.75 h 4.47 v 1.38 h -4.47 v 3.75 h 4.93 v 1.44 h -6.63 V 39.56 h 6.63 v 0.04 z"
         id="path26"
         style="stroke-width:0px" />
      <path
         class="cls-2"
         d="m 192.45,39.59 v 1.44 h -4.93 v 3.75 h 4.47 v 1.38 h -4.47 v 3.75 h 4.93 v 1.44 h -6.63 V 39.56 h 6.63 v 0.04 z"
         id="path27"
         style="stroke-width:0px" />
      <path
         class="cls-2"
         d="m 199.67,39.59 c 0.47,0 0.91,0.06 1.33,0.21 0.44,0.15 0.83,0.36 1.14,0.64 0.34,0.28 0.59,0.64 0.8,1.06 0.19,0.42 0.3,0.91 0.3,1.44 0,0.42 -0.06,0.8 -0.19,1.14 -0.13,0.34 -0.3,0.66 -0.51,0.93 -0.21,0.27 -0.47,0.51 -0.76,0.68 -0.3,0.19 -0.59,0.32 -0.93,0.42 0.08,0.04 0.23,0.17 0.4,0.38 0.17,0.19 0.36,0.53 0.57,1 0.15,0.32 0.32,0.7 0.53,1.14 0.21,0.44 0.4,0.87 0.59,1.25 0.19,0.4 0.34,0.74 0.49,1.04 0.13,0.3 0.21,0.44 0.21,0.44 h -1.86 c -0.06,-0.15 -0.19,-0.38 -0.34,-0.72 -0.15,-0.34 -0.32,-0.68 -0.51,-1.06 -0.19,-0.38 -0.36,-0.76 -0.55,-1.14 -0.17,-0.38 -0.32,-0.7 -0.44,-0.95 -0.11,-0.21 -0.21,-0.4 -0.34,-0.57 -0.11,-0.15 -0.21,-0.28 -0.34,-0.4 -0.13,-0.12 -0.25,-0.19 -0.38,-0.19 h -1.67 v 5.04 h -1.69 V 39.58 h 4.15 v 0.02 z m -2.44,5.36 h 2.43 c 0.25,0 0.51,-0.04 0.74,-0.13 0.23,-0.09 0.42,-0.21 0.59,-0.36 0.17,-0.17 0.3,-0.38 0.4,-0.64 0.1,-0.26 0.15,-0.55 0.15,-0.89 0,-0.68 -0.19,-1.16 -0.55,-1.5 -0.36,-0.32 -0.8,-0.49 -1.33,-0.49 h -2.43 v 4 0 z"
         id="path28"
         style="stroke-width:0px" />
      <path
         class="cls-2"
         d="M 208.29,39.59 V 51.38 H 206.6 V 39.59 Z"
         id="path29"
         style="stroke-width:0px" />
      <path
         class="cls-2"
         d="m 211.84,39.59 h 1.72 l 3.96,8.19 v -8.19 h 1.69 v 11.79 h -1.69 l -3.98,-8.19 v 8.19 h -1.69 v -11.79 0 z"
         id="path30"
         style="stroke-width:0px" />
      <path
         class="cls-2"
         d="m 230.88,44.93 v 2.48 c 0,0.57 -0.11,1.1 -0.34,1.61 -0.23,0.51 -0.53,0.95 -0.91,1.31 -0.38,0.38 -0.83,0.68 -1.36,0.89 -0.53,0.21 -1.08,0.32 -1.65,0.32 -0.57,0 -1.16,-0.11 -1.67,-0.32 -0.53,-0.21 -0.97,-0.51 -1.36,-0.89 -0.38,-0.38 -0.68,-0.8 -0.91,-1.31 -0.21,-0.51 -0.34,-1.04 -0.34,-1.61 v -3.83 c 0,-0.57 0.11,-1.1 0.34,-1.61 0.21,-0.51 0.53,-0.95 0.91,-1.31 0.38,-0.38 0.83,-0.68 1.36,-0.89 0.53,-0.21 1.08,-0.32 1.67,-0.32 0.51,0 1,0.08 1.46,0.23 0.47,0.15 0.87,0.38 1.23,0.66 0.36,0.28 0.66,0.61 0.91,1 0.25,0.38 0.44,0.8 0.55,1.23 h -1.61 c -0.19,-0.53 -0.49,-0.93 -0.91,-1.21 -0.42,-0.28 -0.95,-0.42 -1.61,-0.42 -0.36,0 -0.7,0.06 -1.02,0.19 -0.32,0.13 -0.57,0.32 -0.8,0.55 -0.23,0.23 -0.4,0.51 -0.53,0.83 -0.13,0.32 -0.19,0.68 -0.19,1.06 v 3.83 c 0,0.38 0.06,0.74 0.19,1.06 0.13,0.32 0.3,0.59 0.53,0.83 0.23,0.24 0.51,0.4 0.8,0.55 0.32,0.13 0.66,0.19 1.02,0.19 0.4,0 0.78,-0.06 1.12,-0.19 0.34,-0.13 0.64,-0.32 0.87,-0.55 0.23,-0.23 0.42,-0.51 0.57,-0.83 0.13,-0.32 0.21,-0.68 0.21,-1.06 v -1.06 h -2.16 v -1.4 h 3.62 z"
         id="path31"
         style="stroke-width:0px" />
    </g>
    <g
       class="cls-4"
       id="g32"
       style="isolation:isolate">
      <path
         class="cls-2"
         d="m 5.55,22.59 v 7.35 c 0,5.67 1.16,9.91 3.49,12.7 2.33,2.82 5.55,4.21 9.63,4.21 3.66,0 6.54,-1.02 8.58,-3.05 2.05,-2.03 3.07,-4.53 3.07,-7.47 h 5.48 c 0,1.78 -0.34,3.56 -1.04,5.36 -0.7,1.8 -1.72,3.51 -3.05,5.12 -1.33,1.61 -3.15,2.92 -5.46,3.9 -2.31,0.97 -4.93,1.46 -7.88,1.46 C 12.7,52.17 8.21,50.26 4.92,46.45 1.65,42.64 0,37.16 0,30.02 V 22.44 C 0,15.37 1.67,9.85 5,5.91 8.32,1.97 12.81,0 18.44,0 c 2.82,0 5.36,0.49 7.62,1.46 2.27,0.97 4.09,2.29 5.46,3.94 1.38,1.65 2.43,3.43 3.18,5.38 0.74,1.95 1.1,3.94 1.1,5.99 h -5.48 c 0,-2.99 -1.06,-5.63 -3.2,-7.96 C 24.98,6.5 22.08,5.34 18.44,5.34 14.52,5.34 11.41,6.82 9.06,9.79 6.71,12.75 5.55,17.01 5.55,22.6 Z"
         id="path32"
         style="stroke-width:0px" />
    </g>
    <g
       class="cls-4"
       id="g33"
       style="isolation:isolate">
      <path
         class="cls-2"
         d="M 90.84,51.09 H 85.72 V 0.97 h 5.12 z"
         id="path33"
         style="stroke-width:0px" />
    </g>
    <rect
       class="cls-2"
       x="85.519997"
       y="0.38"
       width="5.29"
       height="50.82"
       id="rect33"
       style="stroke-width:0px" />
    <rect
       class="cls-2"
       x="87.550003"
       y="0.38"
       width="29.280001"
       height="4.8699999"
       id="rect34"
       style="stroke-width:0px" />
    <rect
       class="cls-2"
       x="90.790001"
       y="46.330002"
       width="26.129999"
       height="4.8699999"
       id="rect35"
       style="stroke-width:0px" />
    <rect
       class="cls-2"
       x="71.879997"
       y="0.38"
       width="5.29"
       height="22.23"
       id="rect36"
       style="stroke-width:0px" />
    <rect
       class="cls-2"
       x="42.540001"
       y="28.309999"
       width="5.29"
       height="22.870001"
       id="rect37"
       style="stroke-width:0px" />
    <rect
       class="cls-2"
       x="30.34"
       y="28.309999"
       width="5.46"
       height="8.0500002"
       id="rect38"
       style="stroke-width:0px" />
    <g
       id="g215">
      <path
         id="rect2970"
         class="cls-1"
         d="M 42.18,0.17 V 22.59 H 11.75 v 5.84 h 59.92 v 22.61 h 5.55 V 28.43 h 16.9 c 0.15,0 0.97,0.02 2.14,-0.38 1.25,-0.42 2.69,-1.36 3.83,-1.65 1.27,-0.34 1.93,0.23 3.09,1.44 0.53,0.55 1.12,1.12 1.82,1.5 0.57,0.3 1.16,0.44 1.84,0.36 0,0 0.19,0 0.47,-0.06 h 0.02 c 0.23,-0.06 0.55,-0.17 0.91,-0.4 0.85,-0.53 1.95,-1.65 3.03,-2.18 0.55,-0.28 1.08,-0.36 1.65,-0.25 0.59,0.13 1.12,0.42 1.82,0.8 0.68,0.36 1.42,0.7 2.27,0.78 0.85,0.06 1.76,-0.15 2.77,-0.74 0.04,-0.02 0.08,-0.04 0.13,-0.04 0,0 0.13,-0.04 0.36,-0.23 0.25,-0.19 0.57,-0.49 0.85,-0.83 0.28,-0.34 0.4,-0.55 0.47,-0.7 0.07,-0.15 0.06,-0.17 0.21,-0.34 0,0 -0.15,0 -0.38,0.02 -0.32,0.02 -0.49,0.06 -0.89,0.13 -0.36,0.04 -0.68,0.08 -1.04,0.04 -0.32,-0.02 -0.64,-0.11 -1,-0.19 -0.19,-0.11 -0.42,-0.25 -0.72,-0.53 -0.8,-0.78 -2.05,-2.52 -3.45,-3.6 -0.72,-0.55 -1.42,-0.85 -2.14,-0.83 -0.74,0.02 -1.4,0.38 -2.08,0.93 -1.44,1.19 -2.37,2.71 -3.41,2.63 v 0 c -0.08,0 -0.17,0 -0.32,-0.02 -0.36,-0.04 -0.8,-0.13 -1.29,-0.38 -0.49,-0.25 -0.91,-0.61 -1.38,-1.08 -0.44,-0.44 -0.89,-0.95 -1.36,-1.31 -0.49,-0.38 -1.02,-0.61 -1.67,-0.64 -0.66,-0.02 -1.4,0.17 -2.22,0.49 -1.72,0.66 -3.24,1.55 -4.4,1.44 H 71.86 V 11.05 H 69.38 V 12 h -0.25 v 0.74 H 68.3 v 2.88 h -1.06 v 4.91 H 66.82 V 14.9 H 65.87 V 9.03 c 0,-1.08 -0.78,-2.12 -1.93,-2.37 V 5.69 H 63.71 V 4.74 H 63.56 V 4.08 H 63.22 V 4.74 H 63.07 V 5.69 H 62.84 V 6.64 C 61.72,6.85 60.85,7.7 60.76,8.76 v 0 6.12 h -1.1 v 1.72 h -1.02 v -0.21 c 0,0 -0.02,-0.06 -0.02,-0.08 C 58.6,16.27 58.6,16.23 58.58,16.2 58.56,16.16 58.56,16.14 58.54,16.09 58.52,16.04 58.5,16.03 58.48,15.98 58.46,15.94 58.44,15.92 58.42,15.87 58.4,15.85 58.38,15.81 58.34,15.79 58.32,15.77 58.28,15.73 58.26,15.71 58.24,15.69 58.2,15.67 58.18,15.63 58.16,15.61 58.12,15.59 58.07,15.57 58.02,15.55 58.01,15.53 57.96,15.51 57.91,15.49 57.9,15.47 57.85,15.47 57.81,15.45 57.79,15.45 57.74,15.43 h -0.66 c -0.17,-0.47 -0.64,-1.86 -0.95,-2.79 l -0.47,1.27 h -2.58 v 1.52 h -4.34 v 0.93 c -0.15,0.49 -0.53,0.85 -1.02,0.95 V 0.15 h -5.55 v 0.02 z"
         style="fill:url(#linear-gradient);stroke-width:0px" />
    </g>
    <g
       class="cls-4"
       id="g46"
       style="isolation:isolate">
      <path
         class="cls-3"
         d="m 12.39,28.08 v -5.15 h 1.1 v 5.15 z"
         id="path38"
         style="fill:#ffffff;stroke-width:0px" />
      <path
         class="cls-3"
         d="m 16.6,28.08 v -5.15 h 1.1 v 5.15 z"
         id="path39"
         style="fill:#ffffff;stroke-width:0px" />
      <path
         class="cls-3"
         d="m 22.38,22.89 c 0.53,0 0.93,0.17 1.23,0.53 0.36,0.42 0.53,1.12 0.53,2.1 0,0.98 -0.17,1.67 -0.53,2.1 -0.3,0.36 -0.7,0.53 -1.23,0.53 -0.53,0 -0.95,-0.19 -1.27,-0.57 -0.32,-0.38 -0.49,-1.08 -0.49,-2.05 0,-0.97 0.17,-1.67 0.53,-2.1 0.3,-0.34 0.7,-0.53 1.23,-0.53 z m 0,0.82 c -0.13,0 -0.23,0.04 -0.34,0.11 -0.11,0.08 -0.17,0.21 -0.23,0.4 -0.06,0.25 -0.11,0.68 -0.11,1.29 0,0.61 0.04,1.02 0.11,1.25 0.06,0.23 0.15,0.38 0.23,0.44 0.11,0.08 0.21,0.11 0.34,0.11 0.13,0 0.23,-0.04 0.34,-0.11 0.11,-0.08 0.17,-0.21 0.23,-0.4 0.06,-0.25 0.11,-0.68 0.11,-1.29 0,-0.61 -0.04,-1.02 -0.11,-1.25 -0.06,-0.23 -0.15,-0.38 -0.23,-0.44 -0.08,-0.06 -0.21,-0.11 -0.34,-0.11 z"
         id="path40"
         style="fill:#ffffff;stroke-width:0px" />
      <path
         class="cls-3"
         d="m 27.14,28.08 v -5.15 h 1.1 v 5.15 z"
         id="path41"
         style="fill:#ffffff;stroke-width:0px" />
      <path
         class="cls-3"
         d="m 32.93,22.89 c 0.53,0 0.93,0.17 1.23,0.53 0.36,0.42 0.53,1.12 0.53,2.1 0,0.98 -0.17,1.67 -0.53,2.1 -0.3,0.36 -0.7,0.53 -1.23,0.53 -0.53,0 -0.95,-0.19 -1.27,-0.57 -0.32,-0.38 -0.49,-1.08 -0.49,-2.05 0,-0.97 0.17,-1.67 0.53,-2.1 0.3,-0.34 0.7,-0.53 1.23,-0.53 z m 0,0.82 c -0.13,0 -0.23,0.04 -0.34,0.11 -0.11,0.08 -0.17,0.21 -0.23,0.4 -0.06,0.25 -0.11,0.68 -0.11,1.29 0,0.61 0.04,1.02 0.11,1.25 0.06,0.23 0.15,0.38 0.23,0.44 0.11,0.08 0.21,0.11 0.34,0.11 0.13,0 0.23,-0.04 0.34,-0.11 0.11,-0.08 0.17,-0.21 0.23,-0.4 0.06,-0.25 0.11,-0.68 0.11,-1.29 0,-0.61 -0.04,-1.02 -0.11,-1.25 -0.06,-0.23 -0.15,-0.38 -0.23,-0.44 -0.08,-0.06 -0.21,-0.11 -0.34,-0.11 z"
         id="path42"
         style="fill:#ffffff;stroke-width:0px" />
      <path
         class="cls-3"
         d="m 39.26,22.89 c 0.53,0 0.93,0.17 1.23,0.53 0.36,0.42 0.53,1.12 0.53,2.1 0,0.98 -0.17,1.67 -0.53,2.1 -0.3,0.36 -0.7,0.53 -1.23,0.53 -0.53,0 -0.95,-0.19 -1.27,-0.57 -0.32,-0.38 -0.49,-1.08 -0.49,-2.05 0,-0.97 0.17,-1.67 0.53,-2.1 0.3,-0.34 0.7,-0.53 1.23,-0.53 z m 0,0.82 c -0.13,0 -0.23,0.04 -0.34,0.11 -0.11,0.08 -0.17,0.21 -0.23,0.4 -0.06,0.25 -0.11,0.68 -0.11,1.29 0,0.61 0.04,1.02 0.11,1.25 0.06,0.23 0.15,0.38 0.23,0.44 0.11,0.08 0.21,0.11 0.34,0.11 0.13,0 0.23,-0.04 0.34,-0.11 0.11,-0.08 0.17,-0.21 0.23,-0.4 0.06,-0.25 0.11,-0.68 0.11,-1.29 0,-0.61 -0.04,-1.02 -0.11,-1.25 -0.06,-0.23 -0.15,-0.38 -0.23,-0.44 -0.11,-0.06 -0.21,-0.11 -0.34,-0.11 z"
         id="path43"
         style="fill:#ffffff;stroke-width:0px" />
      <path
         class="cls-3"
         d="m 44.02,28.08 v -5.15 h 1.1 v 5.15 z"
         id="path44"
         style="fill:#ffffff;stroke-width:0px" />
      <path
         class="cls-3"
         d="m 48.23,28.08 v -5.15 h 1.1 v 5.15 z"
         id="path45"
         style="fill:#ffffff;stroke-width:0px" />
      <path
         class="cls-3"
         d="m 54.01,22.89 c 0.53,0 0.93,0.17 1.23,0.53 0.36,0.42 0.53,1.12 0.53,2.1 0,0.98 -0.17,1.67 -0.53,2.1 -0.3,0.36 -0.7,0.53 -1.23,0.53 -0.53,0 -0.95,-0.19 -1.27,-0.57 -0.32,-0.38 -0.49,-1.08 -0.49,-2.05 0,-0.97 0.17,-1.67 0.53,-2.1 0.3,-0.34 0.7,-0.53 1.23,-0.53 z m 0,0.82 c -0.13,0 -0.23,0.04 -0.34,0.11 -0.11,0.08 -0.17,0.21 -0.23,0.4 -0.06,0.25 -0.11,0.68 -0.11,1.29 0,0.61 0.04,1.02 0.11,1.25 0.06,0.23 0.15,0.38 0.23,0.44 0.11,0.08 0.21,0.11 0.34,0.11 0.13,0 0.23,-0.04 0.34,-0.11 0.11,-0.08 0.17,-0.21 0.23,-0.4 0.06,-0.25 0.11,-0.68 0.11,-1.29 0,-0.61 -0.04,-1.02 -0.11,-1.25 -0.06,-0.23 -0.15,-0.38 -0.23,-0.44 -0.08,-0.06 -0.21,-0.11 -0.34,-0.11 z"
         id="path46"
         style="fill:#ffffff;stroke-width:0px" />
    </g>
    <path
       style="fill:#ffffff;stroke:#ffffff;stroke-width:0.53764"
       d="m 45.956712,46.292653 v -3.829726 h 2.620339 2.620339 v 3.829726 3.829726 h -2.620339 -2.620339 z"
       id="path2"
       transform="translate(-15.5187,-13.984148)" />
    <path
       style="fill:#ffffff;stroke:#ffffff;stroke-width:0.53764"
       d="M 58.18496,53.750541 V 42.462927 h 2.553151 2.553151 V 53.750541 65.038154 H 60.738111 58.18496 Z"
       id="path7"
       transform="translate(-15.5187,-13.984148)" />
    <path
       style="fill:#ffffff;stroke:#ffffff;stroke-width:0.53764"
       d="M 87.479005,25.464319 V 14.37827 h 2.553151 2.55315 v 11.086049 11.086049 h -2.55315 -2.553151 z"
       id="path8"
       transform="translate(-15.5187,-13.984148)" />
    <path
       style="fill:#ffffff;stroke:#ffffff;stroke-width:0.53764"
       d="M 101.05102,25.464319 V 14.37827 h 15.58765 15.58766 v 2.418774 2.418774 h -12.96732 -12.96732 v 8.667275 8.667275 h -2.62033 -2.62034 z"
       id="path34"
       transform="translate(-15.5187,-13.984148)" />
    <path
       style="fill:#ffffff;stroke:#ffffff;stroke-width:0.53764"
       d="M 101.05102,53.817729 V 42.462927 h 2.62034 2.62033 v 11.354802 11.354802 h -2.62033 -2.62034 z"
       id="path35"
       transform="translate(-15.5187,-13.984148)" />
    <path
       style="fill:#ffffff;stroke:#ffffff;stroke-width:0.53764"
       d="m 106.56045,62.753756 v -2.418774 h 12.90013 12.90013 v 2.418774 2.418775 h -12.90013 -12.90013 z"
       id="path36"
       transform="translate(-15.5187,-13.984148)" />
    <path
       style="fill:#ffffff;stroke:#ffffff;stroke-width:0.53764"
       d="m 145.19365,25.890541 c -1.15429,-0.381692 -2.05039,-1.128536 -2.59719,-2.164588 -0.35771,-0.677783 -0.35909,-0.691816 -0.35909,-3.636688 0,-2.817995 0.0145,-2.985791 0.31075,-3.58716 0.68057,-1.381701 1.97266,-2.25076 3.50989,-2.360747 1.28558,-0.09198 2.21633,0.207241 3.09112,0.993753 0.62863,0.565191 1.21801,1.431811 1.21801,1.790956 0,0.07906 -0.30766,0.13973 -0.70851,0.13973 -0.67281,0 -0.72137,-0.02386 -0.96351,-0.473492 -0.37256,-0.691808 -1.00988,-1.031253 -2.0697,-1.102357 -1.23906,-0.08313 -1.94528,0.291756 -2.48082,1.316904 l -0.38094,0.729205 0.0431,2.709989 0.0431,2.70999 0.40313,0.568357 c 0.55304,0.779701 1.14109,1.066479 2.18688,1.066479 1.78313,0 2.71786,-0.968213 2.71786,-2.81523 v -0.947307 h -1.07501 -1.07501 v -0.604694 -0.604694 h 1.81408 1.81408 v 1.248343 c 0,2.55626 -0.85397,4.136404 -2.6384,4.881988 -0.68102,0.284548 -2.14715,0.358414 -2.80384,0.141263 z"
       id="path37"
       transform="translate(-15.5187,-13.984148)" />
    <path
       style="fill:#ffffff;stroke:#ffffff;stroke-width:0.53764"
       d="m 153.32342,20.089265 v -5.845372 h 0.73907 0.73907 v 5.17349 5.173489 h 2.48596 2.48596 v 0.671882 0.671882 h -3.22503 -3.22503 z"
       id="path47"
       transform="translate(-15.5187,-13.984148)" />
    <path
       style="fill:#ffffff;stroke:#ffffff;stroke-width:0.53764"
       d="m 164.60439,25.893961 c -1.25759,-0.355563 -2.44284,-1.414899 -2.89511,-2.587545 -0.22058,-0.571926 -0.25609,-1.029268 -0.25609,-3.298138 V 17.37414 l 0.47031,-0.921778 c 0.82357,-1.614107 2.26685,-2.432039 4.08223,-2.313459 1.57476,0.102863 2.84446,0.952224 3.53963,2.367815 0.37158,0.756661 0.37354,0.775067 0.37354,3.515358 0,2.691916 -0.008,2.771564 -0.3511,3.493786 -0.89098,1.875529 -3.06196,2.915703 -4.96341,2.378099 z m 2.11432,-1.446014 c 0.5378,-0.203196 1.11045,-0.776781 1.4001,-1.402403 0.21287,-0.459768 0.24909,-0.887323 0.2505,-2.956279 0.002,-2.276999 -0.0174,-2.459619 -0.32281,-3.115601 -0.40146,-0.862262 -1.09945,-1.360726 -2.06564,-1.475157 -0.99415,-0.117742 -2.03293,0.40247 -2.5458,1.274914 -0.35858,0.609987 -0.37067,0.696567 -0.41438,2.967861 -0.0299,1.551607 0.01,2.534853 0.11734,2.919453 0.18442,0.65867 0.81004,1.426789 1.40582,1.726014 0.46829,0.235191 1.62799,0.267824 2.17487,0.0612 z"
       id="path48"
       transform="translate(-15.5187,-13.984148)" />
    <path
       style="fill:#ffffff;stroke:#ffffff;stroke-width:0.53764"
       d="m 172.80799,20.089265 v -5.845372 l 2.58674,7.5e-4 c 2.72411,7.89e-4 3.27587,0.08011 4.01351,0.576955 1.4683,0.989 1.49773,3.759601 0.0499,4.697401 -0.49529,0.320807 -0.59382,0.503077 -0.27194,0.503077 0.3244,0 1.17187,0.833299 1.43377,1.4098 0.32256,0.71004 0.32252,1.980317 -9e-5,2.688679 -0.36619,0.804041 -1.19759,1.487837 -2.02466,1.665212 -0.38178,0.08188 -1.84009,0.148869 -3.24068,0.148869 H 172.808 Z m 5.79399,3.979911 c 0.49322,-0.493223 0.5217,-0.566927 0.5217,-1.350437 0,-0.902694 -0.1831,-1.37252 -0.73672,-1.890404 -0.3402,-0.318248 -0.45411,-0.338259 -2.16279,-0.379947 l -1.80367,-0.04401 v 2.093245 2.093245 h 1.82989 1.82989 z m -0.50156,-5.133975 c 1.14224,-0.898487 0.94859,-2.867657 -0.32516,-3.306366 -0.25611,-0.08821 -1.11571,-0.163799 -1.91021,-0.16797 l -1.44455,-0.0076 v 1.881269 1.881269 h 1.66159 c 1.48153,0 1.70024,-0.03041 2.01833,-0.280617 z"
       id="path49"
       transform="translate(-15.5187,-13.984148)" />
    <path
       style="fill:#ffffff;stroke:#ffffff;stroke-width:0.53764"
       d="m 182.24186,25.773519 c 0.0339,-0.09615 0.80981,-2.732134 1.72434,-5.857735 l 1.6628,-5.68291 0.87314,0.0391 0.87315,0.0391 1.64779,5.710995 c 0.90629,3.141048 1.64986,5.728998 1.65238,5.751002 0.003,0.022 -0.36961,0.022 -0.82695,0 l -0.83153,-0.04001 -0.34244,-1.313665 -0.34244,-1.313665 -1.87709,0.03709 -1.8771,0.03709 -0.35412,1.343763 -0.35412,1.343764 -0.84467,0.04045 c -0.64802,0.03103 -0.83035,-2.55e-4 -0.78314,-0.134376 z m 5.75066,-4.022231 c 0,-0.25166 -1.38124,-5.416149 -1.47927,-5.531017 -0.098,-0.114799 -1.59534,5.414961 -1.51159,5.582292 0.0857,0.171327 2.99086,0.121522 2.99086,-0.05128 z"
       id="path50"
       transform="translate(-15.5187,-13.984148)" />
    <path
       style="fill:#ffffff;stroke:#ffffff;stroke-width:0.53764"
       d="m 192.69569,20.089265 v -5.845372 h 0.73907 0.73907 v 5.17349 5.173489 h 2.41877 2.41878 v 0.671882 0.671882 h -3.15785 -3.15784 z"
       id="path51"
       transform="translate(-15.5187,-13.984148)" />
    <path
       style="fill:#ffffff;stroke:#ffffff;stroke-width:0.53764"
       d="m 192.15818,39.573836 v -5.845372 h 0.80626 0.80626 v 2.620339 2.620339 h 1.88127 1.88127 v -2.620339 -2.620339 h 0.80626 0.80625 v 5.845372 5.845371 h -0.80625 -0.80626 v -2.620339 -2.620339 h -1.88127 -1.88127 v 2.620339 2.620339 h -0.80626 -0.80626 z"
       id="path52"
       transform="translate(-15.5187,-13.984148)" />
    <path
       style="fill:#ffffff;stroke:#ffffff;stroke-width:0.53764"
       d="m 184.22998,40.245717 v -5.173489 h -1.74689 -1.7469 v -0.671882 -0.671882 h 4.30005 4.30004 v 0.671882 0.671882 h -1.74689 -1.7469 v 5.173489 5.17349 h -0.80625 -0.80626 z"
       id="path53"
       transform="translate(-15.5187,-13.984148)" />
    <path
       style="fill:#ffffff;stroke:#ffffff;stroke-width:0.53764"
       d="m 174.01738,39.573836 v -5.845372 h 0.73907 0.73907 v 5.17349 5.173489 h 2.48596 2.48596 v 0.671882 0.671882 h -3.22503 -3.22503 z"
       id="path54"
       transform="translate(-15.5187,-13.984148)" />
    <path
       style="fill:#ffffff;stroke:#ffffff;stroke-width:0.53764"
       d="m 162.91733,45.056374 c 0.21531,-0.689262 3.30622,-11.2301 3.30622,-11.275111 0,-0.02904 0.39049,-0.0528 0.86775,-0.0528 h 0.86776 l 0.26739,0.907041 c 0.14706,0.498872 0.87719,3.023468 1.62251,5.610212 0.74532,2.586745 1.38153,4.778759 1.41379,4.871143 0.0428,0.122672 -0.16696,0.167971 -0.77797,0.167971 h -0.83663 l -0.33862,-1.31017 -0.33862,-1.310169 -1.88521,-0.03713 -1.8852,-0.03712 -0.33768,1.3137 -0.33769,1.3137 -0.84168,0.0403 c -0.75837,0.03631 -0.8342,0.01636 -0.76612,-0.201565 z m 5.67556,-3.903616 c -0.0371,-0.129337 -0.34619,-1.323607 -0.68677,-2.653933 -0.74144,-2.896126 -0.75006,-2.925763 -0.82782,-2.848002 -0.0569,0.05687 -1.52663,5.51349 -1.52663,5.667747 0,0.03814 0.69947,0.06935 1.55438,0.06935 1.41651,0 1.54839,-0.02086 1.48684,-0.235158 z"
       id="path55"
       transform="translate(-15.5187,-13.984148)" />
    <path
       style="fill:#ffffff;stroke:#ffffff;stroke-width:0.53764"
       d="m 154.26405,39.506647 v -5.778183 h 3.29222 3.29222 v 0.671882 0.671882 h -2.48596 -2.48596 v 1.948457 1.948457 h 2.21721 2.21721 v 0.604694 0.604693 h -2.21721 -2.21721 v 1.948457 1.948457 h 2.48596 2.48596 v 0.604694 0.604694 h -3.29222 -3.29222 z"
       id="path56"
       transform="translate(-15.5187,-13.984148)" />
    <path
       style="fill:#ffffff;stroke:#ffffff;stroke-width:0.53764"
       d="m 143.51394,39.573836 v -5.845372 h 0.80626 0.80626 v 2.620339 2.620339 h 1.94846 1.94845 v -2.620339 -2.620339 h 0.73907 0.73907 v 5.845372 5.845371 h -0.73907 -0.73907 v -2.620339 -2.620339 h -1.94845 -1.94846 v 2.620339 2.620339 h -0.80626 -0.80626 z"
       id="path57"
       transform="translate(-15.5187,-13.984148)" />
    <path
       style="fill:#ffffff;stroke:#ffffff;stroke-width:0.53764"
       d="m 143.51394,59.461536 v -5.845372 h 3.29222 3.29223 v 0.671882 0.671882 h -2.48597 -2.48596 v 1.948457 1.948457 h 2.21721 2.21721 v 0.604694 0.604693 h -2.21721 -2.21721 v 1.948457 1.948457 h 2.48596 2.48597 v 0.671882 0.671882 h -3.29223 -3.29222 z"
       id="path58"
       transform="translate(-15.5187,-13.984148)" />
    <path
       style="fill:#ffffff;stroke:#ffffff;stroke-width:0.53764"
       d="m 153.32342,59.461536 v -5.845372 l 0.77266,0.003 0.77267,0.003 1.87592,3.906814 c 1.03175,2.148748 1.95199,4.00681 2.04496,4.129028 0.13699,0.180075 0.16986,-0.561344 0.17332,-3.90986 l 0.004,-4.132073 h 0.73907 0.73907 v 5.845372 5.845371 l -0.77266,-0.003 -0.77266,-0.003 -1.948,-4.040823 c -1.0714,-2.222452 -1.99356,-4.068979 -2.04924,-4.103392 -0.0557,-0.03441 -0.10124,1.785315 -0.10124,4.04384 v 4.106409 h -0.73907 -0.73907 z"
       id="path59"
       transform="translate(-15.5187,-13.984148)" />
    <path
       style="fill:#ffffff;stroke:#ffffff;stroke-width:0.53764"
       d="m 166.67024,65.255896 c -1.21185,-0.396301 -1.98607,-1.095041 -2.54906,-2.300575 -0.2975,-0.637016 -0.31378,-0.818317 -0.31378,-3.493785 0,-2.688694 0.0151,-2.854268 0.31924,-3.507515 0.86303,-1.853453 3.02941,-2.845244 4.97773,-2.278852 1.27882,0.371763 2.07813,1.02448 2.67588,2.185126 0.12181,0.236528 0.22148,0.463288 0.22148,0.503911 0,0.04062 -0.32661,0.07386 -0.7258,0.07386 -0.68407,0 -0.74141,-0.02647 -0.99745,-0.460427 -0.35327,-0.598739 -0.76204,-0.855831 -1.65099,-1.038375 -0.54235,-0.111371 -0.86958,-0.108762 -1.30295,0.01039 -0.73978,0.203391 -1.59451,0.972938 -1.78151,1.603953 -0.0897,0.302584 -0.12848,1.518153 -0.10175,3.187013 0.0414,2.586954 0.0564,2.717061 0.36359,3.164955 1.17497,1.712972 3.88938,1.513571 4.73489,-0.347825 0.15982,-0.351844 0.24772,-0.862447 0.24963,-1.450105 l 0.003,-0.90704 h -1.07501 -1.07501 v -0.604694 -0.604694 h 1.74689 1.7469 v 1.540288 c 0,1.226461 -0.0564,1.691101 -0.27695,2.280498 -0.33478,0.894767 -1.16052,1.783632 -2.06269,2.220363 -0.80337,0.388909 -2.29449,0.495525 -3.12623,0.223529 z"
       id="path60"
       transform="translate(-15.5187,-13.984148)" />
    <path
       style="fill:#ffffff;stroke:#ffffff;stroke-width:0.53764"
       d="m 175.49552,59.461536 v -5.845372 h 0.80625 0.80626 v 5.845372 5.845371 h -0.80626 -0.80625 z"
       id="path61"
       transform="translate(-15.5187,-13.984148)" />
    <path
       style="fill:#ffffff;stroke:#ffffff;stroke-width:0.53764"
       d="M 180.73619,59.455124 V 53.60334 l 0.83047,0.04001 0.83046,0.04001 1.95785,4.065916 1.95784,4.065915 0.0355,-4.09951 0.0355,-4.09951 h 0.80432 0.80432 v 5.845372 5.845371 h -0.7784 -0.77841 l -2.03122,-4.132073 -2.03123,-4.132073 -0.0123,4.132073 -0.0123,4.132073 h -0.80626 -0.80626 z"
       id="path62"
       transform="translate(-15.5187,-13.984148)" />
    <path
       style="fill:#ffffff;stroke:#ffffff;stroke-width:0.53764"
       d="m 191.75505,59.461536 v -5.845372 h 3.22504 3.22503 v 0.671882 0.671882 h -2.48596 -2.48597 v 1.948457 1.948457 h 2.2844 2.2844 v 0.604694 0.604693 h -2.2844 -2.2844 v 1.948457 1.948457 h 2.48597 2.48596 v 0.671882 0.671882 h -3.22503 -3.22504 z"
       id="path63"
       transform="translate(-15.5187,-13.984148)" />
    <path
       style="fill:#ffffff;stroke:#ffffff;stroke-width:0.53764"
       d="m 201.43015,59.461536 v -5.845372 h 3.22503 3.22504 v 0.668851 0.66885 l -2.45237,0.03663 -2.45237,0.03663 v 1.881269 1.881269 l 2.2508,0.03684 2.25081,0.03684 v 0.598196 0.598195 l -2.25081,0.03684 -2.2508,0.03684 v 1.881269 1.881269 l 2.45237,0.03663 2.45237,0.03663 v 0.668851 0.66885 h -3.22504 -3.22503 z"
       id="path64"
       transform="translate(-15.5187,-13.984148)" />
    <path
       style="fill:#ffffff;stroke:#ffffff;stroke-width:0.53764"
       d="m 211.10525,59.451066 v -5.855841 l 2.51956,0.04406 c 2.22295,0.03888 2.59074,0.07733 3.12425,0.326668 1.23393,0.576682 1.87339,1.584615 1.87831,2.960677 0.004,1.219583 -0.496,2.117789 -1.51741,2.723888 l -0.77139,0.457739 0.26377,0.281331 c 0.22247,0.237275 1.92998,3.65438 2.30608,4.614968 0.11506,0.293854 0.0949,0.302347 -0.71857,0.302347 h -0.83696 l -0.9402,-2.017821 c -0.51712,-1.109801 -1.14145,-2.258719 -1.3874,-2.55315 -0.44238,-0.529562 -0.45722,-0.53533 -1.37736,-0.53533 h -0.93016 v 2.55315 2.553151 h -0.80626 -0.80626 z m 4.96237,-0.695215 c 0.74869,-0.381765 1.01738,-0.86497 1.01738,-1.829636 0,-0.919713 -0.22019,-1.39303 -0.83572,-1.796445 -0.28051,-0.183841 -0.71732,-0.247745 -1.94659,-0.284778 l -1.58492,-0.04775 v 2.096987 2.096986 l 1.44454,-2.08e-4 c 1.10969,-1.61e-4 1.55136,-0.05467 1.90531,-0.235159 z"
       id="path65"
       transform="translate(-15.5187,-13.984148)" />
    <path
       style="fill:#ffffff;stroke:#ffffff;stroke-width:0.53764"
       d="m 222.12411,59.461536 v -5.845372 h 0.80626 0.80626 v 5.845372 5.845371 h -0.80626 -0.80626 z"
       id="path66"
       transform="translate(-15.5187,-13.984148)" />
    <path
       style="fill:#ffffff;stroke:#ffffff;stroke-width:0.53764"
       d="m 227.49916,59.461536 v -5.845372 l 0.77267,0.0046 0.77266,0.0046 1.87626,3.905712 c 1.03195,2.148142 1.95218,4.005498 2.04497,4.127459 0.13653,0.179458 0.16952,-0.566252 0.17298,-3.910327 l 0.004,-4.132073 h 0.73907 0.73907 v 5.845372 5.845371 l -0.77266,-7.91e-4 -0.77267,-7.92e-4 -1.94845,-4.042523 c -1.07166,-2.223388 -1.99381,-4.070916 -2.04924,-4.105618 -0.0554,-0.0347 -0.10079,1.78479 -0.10079,4.043315 v 4.106409 h -0.73907 -0.73907 z"
       id="path67"
       transform="translate(-15.5187,-13.984148)" />
    <path
       style="fill:#ffffff;stroke:#ffffff;stroke-width:0.53764"
       d="m 240.84598,65.255896 c -1.21185,-0.396301 -1.98606,-1.095041 -2.54906,-2.300575 -0.29749,-0.637016 -0.31378,-0.818317 -0.31378,-3.493785 0,-2.688694 0.0151,-2.854268 0.31925,-3.507515 0.86303,-1.853453 3.02941,-2.845244 4.97773,-2.278852 1.27882,0.371763 2.07813,1.02448 2.67588,2.185126 0.12181,0.236528 0.22148,0.463288 0.22148,0.503911 0,0.04062 -0.33103,0.07386 -0.73562,0.07386 -0.67649,0 -0.75189,-0.03145 -0.93795,-0.391264 -0.70149,-1.356523 -3.01358,-1.604467 -4.14095,-0.444066 -0.26684,0.274664 -0.54924,0.669616 -0.62755,0.877672 -0.0826,0.219353 -0.14237,1.485907 -0.14237,3.014636 0,2.411345 0.0243,2.686572 0.28484,3.224754 0.54423,1.124234 1.96263,1.634747 3.30404,1.189199 1.19889,-0.398207 1.78617,-1.328893 1.78617,-2.830631 v -0.877762 h -1.07501 -1.07501 V 59.59591 58.991216 h 1.74689 1.74689 v 1.540288 c 0,1.226461 -0.0564,1.691101 -0.27695,2.280498 -0.33477,0.894767 -1.16051,1.783632 -2.06268,2.220363 -0.80338,0.388909 -2.2945,0.495525 -3.12624,0.223529 z"
       id="path68"
       transform="translate(-15.5187,-13.984148)" />
    <path
       style="fill:#ffffff;stroke:#ffffff;stroke-width:0.53764"
       d="m 282.99673,54.120076 c 2.2e-4,-0.05395 6.44148,-32.118541 6.51906,-32.451889 l 0.0704,-0.302347 h 31.44406 31.44407 l -0.0711,0.302347 c -0.16185,0.688322 -2.48718,12.224145 -2.48718,12.338744 0,0.07366 1.53922,0.124662 3.76254,0.124662 2.06939,0 3.76254,-0.02636 3.76254,-0.05859 0,-0.03222 0.57445,-2.873418 1.27657,-6.313766 0.70212,-3.440349 1.27658,-6.286279 1.27658,-6.32429 0,-0.03801 2.30191,-0.06911 5.11535,-0.06911 4.80903,0 5.11114,0.01408 5.0449,0.235159 -0.0811,0.270659 -6.53209,32.332757 -6.53209,32.465157 0,0.04813 -2.29899,0.08751 -5.10886,0.08751 h -5.10886 l 0.0723,-0.302347 c 0.0774,-0.323633 2.48592,-12.362096 2.48592,-12.42558 0,-0.0208 -1.69199,-0.03783 -3.75998,-0.03783 H 348.443 l -0.0723,0.302347 c -0.0774,0.323634 -2.48592,12.362096 -2.48592,12.42558 0,0.02081 -2.29008,0.03783 -5.08907,0.03783 h -5.08908 l 2.46874,-12.240886 c 1.3578,-6.732488 2.46873,-12.295669 2.46873,-12.362625 0,-0.07023 -1.84655,-0.121738 -4.36467,-0.121738 h -4.36467 l -0.0711,0.302347 c -0.096,0.408407 -4.90598,24.300341 -4.90598,24.368814 0,0.02975 -2.29087,0.05409 -5.09084,0.05409 H 316.756 l 2.47051,-12.25762 c 1.35877,-6.741691 2.4705,-12.304872 2.4705,-12.362625 0,-0.05775 -5.31857,-0.105004 -11.81903,-0.105004 h -11.81903 l -0.0896,0.503911 c -0.0493,0.277152 -0.25539,1.335365 -0.45808,2.351587 l -0.36851,1.847674 h 7.42061 7.4206 l -0.58522,2.922686 c -0.32187,1.607477 -0.65022,3.24015 -0.72965,3.628162 l -0.14443,0.705475 h -7.41889 -7.4189 l -0.43259,2.190254 c -0.23793,1.20464 -0.43259,2.262854 -0.43259,2.351586 0,0.123572 1.73047,0.161333 7.39326,0.161333 h 7.39325 l -0.0721,0.302346 c -0.0802,0.336191 -1.54555,7.655581 -1.54555,7.719723 0,0.02228 -5.62365,0.04051 -12.497,0.04051 -6.87335,0 -12.49694,-0.01512 -12.49687,-0.03359 z"
       id="path69"
       transform="translate(-15.5187,-13.984148)" />
    <path
       style="fill:#ffffff;stroke:#ffffff;stroke-width:0.53764"
       d="m 372.65791,52.841979 0.26158,-1.311689 7.48645,-8.46419 7.48646,-8.464189 -5.61994,-0.03505 -5.61993,-0.03505 0.0639,-0.300886 c 0.11789,-0.554672 0.47794,-2.411858 0.47794,-2.465282 0,-0.02905 3.41652,-0.05281 7.59226,-0.05281 4.17575,0 7.58988,0.04535 7.58697,0.100782 -0.003,0.05543 -0.11567,0.628798 -0.25058,1.27415 -0.19774,0.945976 -0.33784,1.284514 -0.72289,1.746893 -0.26268,0.315439 -3.64686,4.141217 -7.5204,8.501729 l -7.04281,7.928205 5.95912,0.03498 5.95912,0.03498 -0.064,0.300963 c -0.11787,0.554564 -0.47796,2.411919 -0.47796,2.465356 0,0.02905 -3.55881,0.05281 -7.90848,0.05281 h -7.90848 z"
       id="path70"
       transform="translate(-15.5187,-13.984148)" />
    <path
       style="fill:#ffffff;stroke:#ffffff;stroke-width:0.53764"
       d="m 398.78277,54.157072 c -2.66358,-0.850981 -4.2745,-3.374702 -4.07645,-6.386279 0.0532,-0.808581 2.54464,-13.880751 3.00291,-15.755627 0.0713,-0.291526 0.12869,-0.302347 1.60467,-0.302347 1.15228,0 1.53076,0.04243 1.53076,0.171599 0,0.09438 -0.64098,3.344607 -1.4244,7.222729 -1.19478,5.914413 -1.42742,7.267759 -1.44312,8.394893 -0.0154,1.104632 0.0311,1.451374 0.26095,1.948457 0.68054,1.471489 1.62101,2.041962 3.50515,2.126166 2.6367,0.117838 4.77353,-1.112205 6.00577,-3.457158 0.64349,-1.224566 0.817,-1.93488 2.30077,-9.419116 0.71063,-3.584489 1.32281,-6.623074 1.36039,-6.752411 0.0601,-0.206781 0.25931,-0.235159 1.65091,-0.235159 h 1.58257 l -2.22992,11.218262 -2.22992,11.218262 -1.56128,0.0022 -1.56128,0.0022 0.19939,-1.081941 c 0.10966,-0.595068 0.16503,-1.1163 0.12304,-1.158296 -0.042,-0.042 -0.33619,0.172277 -0.65376,0.476163 -0.76326,0.73037 -2.13514,1.440756 -3.41401,1.767836 -1.37173,0.35083 -3.43443,0.350666 -4.53314,-3.6e-4 z"
       id="path71"
       transform="translate(-15.5187,-13.984148)" />
    <path
       style="fill:#ffffff;stroke:#ffffff;stroke-width:0.53764"
       d="m 401.52289,25.22916 c 0.003,-0.09238 0.17238,-0.984307 0.3753,-1.982051 l 0.36895,-1.814081 1.57316,-0.03786 c 0.86523,-0.02082 1.57315,-0.01402 1.57315,0.01511 0,0.06854 -0.64669,3.287817 -0.74014,3.6845 -0.0688,0.291852 -0.12478,0.302347 -1.614,0.302347 -1.14802,0 -1.54115,-0.04298 -1.53642,-0.167971 z"
       id="path72"
       transform="translate(-15.5187,-13.984148)" />
    <path
       style="fill:#ffffff;stroke:#ffffff;stroke-width:0.53764"
       d="m 410.31711,25.094784 c 0.09,-0.382127 0.74015,-3.614729 0.74015,-3.680235 0,-0.02679 0.6954,-0.04871 1.54533,-0.04871 1.10688,0 1.54533,0.04546 1.54533,0.160233 0,0.08813 -0.1641,0.995169 -0.36467,2.015646 l -0.36467,1.855412 h -1.58635 c -1.57662,0 -1.58591,-0.0019 -1.51512,-0.302346 z"
       id="path73"
       transform="translate(-15.5187,-13.984148)" />
    <path
       style="fill:#ffffff;stroke:#ffffff;stroke-width:0.53764"
       d=""
       id="path74"
       transform="translate(-15.5187,-13.984148)" />
    <path
       style="fill:#ffffff;stroke:#ffffff;stroke-width:0.53764"
       d="m 417.77608,54.020887 c 0,-0.163657 4.28504,-21.745824 4.38248,-22.072909 0.0614,-0.206163 0.25947,-0.235159 1.60632,-0.235159 0.84495,0 1.53627,0.01818 1.53627,0.0404 0,0.02222 -0.11783,0.579626 -0.26185,1.238679 -0.14402,0.659053 -0.24653,1.213611 -0.22779,1.232353 0.0188,0.01874 0.37302,-0.286436 0.78727,-0.678172 1.44013,-1.361844 3.33499,-2.096197 5.41873,-2.100027 1.81768,-0.0033 3.19953,0.481023 4.3207,1.514485 l 0.604,0.556744 -0.54008,0.475126 c -0.29704,0.26132 -0.86868,0.762418 -1.27029,1.113553 l -0.73022,0.638427 -0.47584,-0.448779 c -0.83764,-0.789993 -1.34908,-0.962451 -2.85427,-0.962451 -1.19021,0 -1.4354,0.04291 -2.14573,0.375519 -1.73201,0.811003 -3.05374,2.21095 -3.78386,4.007803 -0.2129,0.523947 -0.86403,3.459416 -1.73796,7.835173 -0.76863,3.848528 -1.4301,7.133379 -1.46993,7.29967 -0.0699,0.291783 -0.12632,0.302347 -1.61518,0.302347 -0.92659,0 -1.54277,-0.05303 -1.54277,-0.132783 z"
       id="path75"
       transform="translate(-15.5187,-13.984148)" />
    <path
       style="fill:#ffffff;stroke:#ffffff;stroke-width:0.53764"
       d="m 436.58877,54.050578 c 0,-0.0567 0.99774,-5.089736 2.21721,-11.184522 1.21946,-6.094786 2.21721,-11.097586 2.21721,-11.117333 0,-0.01975 0.69539,-0.0359 1.54532,-0.0359 0.84994,0 1.54533,0.03956 1.54533,0.0879 0,0.135832 -4.30249,21.851424 -4.38218,22.11779 -0.0617,0.206146 -0.25989,0.235159 -1.60662,0.235159 -0.84495,0 -1.53627,-0.04639 -1.53627,-0.103092 z"
       id="path76"
       transform="translate(-15.5187,-13.984148)" />
    <path
       style="fill:#ffffff;stroke:#ffffff;stroke-width:0.53764"
       d="m 442.36695,25.236897 c 0,-0.08813 0.1641,-0.995169 0.36467,-2.015645 l 0.36467,-1.855412 h 1.58379 c 0.87108,0 1.58378,0.02192 1.58378,0.04871 0,0.06551 -0.65012,3.298108 -0.74014,3.680235 -0.0688,0.291852 -0.12478,0.302347 -1.614,0.302347 -1.1049,0 -1.54277,-0.04548 -1.54277,-0.160234 z"
       id="path77"
       transform="translate(-15.5187,-13.984148)" />
    <path
       style="fill:#ffffff;stroke:#ffffff;stroke-width:0.53764"
       d="m 453.29079,54.219791 c -2.7522,-0.598117 -4.73401,-2.557222 -5.50424,-5.441175 -0.3414,-1.278288 -0.3074,-3.921681 0.0758,-5.893951 1.00312,-5.162905 3.28053,-8.706499 6.66566,-10.371629 1.48277,-0.729368 2.4211,-0.954437 4.30444,-1.032473 1.79679,-0.07445 2.79606,0.102222 4.06688,0.719026 0.71876,0.348854 2.0998,1.525886 2.57749,2.19673 l 0.25909,0.363871 -1.16953,0.96373 c -1.06924,0.881091 -1.18425,0.943441 -1.34115,0.727119 -0.46105,-0.635657 -1.36577,-1.43897 -1.97372,-1.752498 -0.9675,-0.498945 -2.88801,-0.582944 -4.20214,-0.183792 -3.61753,1.098793 -6.03151,5.321604 -6.31037,11.038834 -0.14349,2.941904 0.69183,4.724244 2.63519,5.622742 0.60856,0.281363 1.00511,0.356915 2.09445,0.39904 1.97394,0.07633 3.15802,-0.368633 4.88039,-1.833986 l 0.71471,-0.608065 0.32526,0.393751 c 0.1789,0.216562 0.5813,0.719188 0.89422,1.116944 l 0.56896,0.723195 -0.46674,0.396938 c -0.86911,0.739148 -2.07035,1.499483 -2.95014,1.867329 -1.79772,0.75163 -4.29347,0.990592 -6.14451,0.58832 z"
       id="path78"
       transform="translate(-15.5187,-13.984148)" />
    <path
       style="fill:#ffffff;stroke:#ffffff;stroke-width:0.53764"
       d="m 467.48712,54.052888 c -0.005,-0.05543 1.46187,-7.432519 3.25863,-16.393531 l 3.26683,-16.292747 1.57892,-3.85e-4 c 0.86841,-2.12e-4 1.57762,0.01473 1.57602,0.03321 -0.002,0.01848 -0.5702,2.815185 -1.26357,6.214906 -0.69337,3.399722 -1.242,6.200791 -1.21919,6.224598 0.0228,0.02381 0.42054,-0.262159 0.88382,-0.63548 1.58384,-1.276267 3.52856,-1.84041 5.96998,-1.731828 1.23792,0.05506 1.48075,0.110549 2.40553,0.549727 1.76833,0.839774 2.81726,2.224977 3.2598,4.304833 0.13696,0.643662 0.17881,1.297623 0.12614,1.97107 -0.0433,0.554303 -0.75474,4.348755 -1.58088,8.432116 l -1.50207,7.424294 h -1.56906 -1.56906 l 1.46327,-7.289917 c 1.18367,-5.896928 1.46502,-7.521012 1.47237,-8.499305 0.0143,-1.898301 -0.49182,-2.919624 -1.80089,-3.634389 -0.98379,-0.537166 -2.73874,-0.627945 -4.10673,-0.212432 -2.108,0.640286 -3.68628,2.247157 -4.4383,4.518703 -0.14681,0.443442 -0.87877,3.890196 -1.62658,7.659452 -0.74782,3.769257 -1.38927,6.98925 -1.42545,7.155541 -0.0636,0.292169 -0.11772,0.302347 -1.60855,0.302347 -0.84853,0 -1.54646,-0.04535 -1.55098,-0.100783 z"
       id="path79"
       transform="translate(-15.5187,-13.984148)" />
  </g>
  <path
     style="fill:#ffffff;stroke:#ffffff;stroke-width:0.53764"
     d="M 32.04876,66.02193 C 29.709227,65.821468 26.927362,65.03958 25.111718,64.072166 20.591237,61.663553 17.434515,57.063204 16.277149,51.19739 15.686107,48.20184 15.654845,47.648305 15.654845,40.178529 c 0,-8.006791 0.05574,-8.728127 0.93926,-12.154342 1.001446,-3.883536 2.48798,-6.574882 5.070975,-9.180914 2.221837,-2.241654 4.871767,-3.669041 8.16647,-4.398876 1.339243,-0.296666 5.339281,-0.418522 6.90385,-0.210317 3.771705,0.501921 7.203963,2.103179 9.490065,4.427419 2.87982,2.927864 4.971925,7.635447 4.971925,11.187653 v 0.788656 H 48.585284 45.97318 l -0.08165,-0.638287 c -0.321892,-2.516312 -0.764418,-3.851759 -1.804104,-5.444398 -1.79243,-2.745728 -4.08906,-4.34317 -7.201115,-5.008801 -1.303673,-0.27884 -4.191227,-0.319974 -5.427327,-0.07731 -4.366222,0.857139 -7.750478,4.048442 -9.290365,8.760678 -0.926484,2.835151 -1.205669,5.620521 -1.2044,12.016031 0.0012,6.223206 0.219887,8.695184 1.010394,11.423059 1.718704,5.930887 6.044508,9.203711 12.164861,9.203711 3.813485,0 6.746559,-1.055047 8.810705,-3.169274 1.755807,-1.798407 2.607568,-3.725963 2.94906,-6.673793 l 0.07394,-0.638288 h 2.612104 2.612106 v 0.727249 c 0,2.931095 -1.903604,7.274716 -4.388838,10.014401 -3.149341,3.47179 -8.934929,5.388252 -14.759792,4.889148 z"
     id="path1" />
</svg>
